<svg width="1920" height="1024" viewBox="0 0 1920 1024" fill="none" xmlns="http://www.w3.org/2000/svg">
<rect x="1665.44" y="-49.7078" width="1947" height="582.628" transform="rotate(120 1665.44 -49.7078)" fill="#1DB275"/>
<circle cx="830.454" cy="747.101" r="99.4541" fill="#1DB275"/>
<circle cx="899.727" cy="795.679" r="69.2729" fill="#041C32"/>
<circle cx="771.529" cy="675.529" r="40.529" fill="#F6CE4B"/>
<rect x="822" y="260" width="871" height="501" fill="#F6CE4B"/>
<path d="M1720 273.5C1720 267.525 1718.82 261.608 1716.54 256.088C1714.25 250.568 1710.9 245.552 1706.67 241.327C1702.45 237.102 1697.43 233.75 1691.91 231.463C1686.39 229.177 1680.48 228 1674.5 228L1674.5 273.5H1720Z" fill="#F6CE4B"/>
<path d="M1674.5 319C1680.48 319 1686.39 317.823 1691.91 315.537C1697.43 313.25 1702.45 309.898 1706.67 305.673C1710.9 301.448 1714.25 296.432 1716.54 290.912C1718.82 285.392 1720 279.475 1720 273.5L1674.5 273.5V319Z" fill="#041C32"/>
<path d="M1674.5 319C1668.52 319 1662.61 317.823 1657.09 315.537C1651.57 313.25 1646.55 309.898 1642.33 305.673C1638.1 301.448 1634.75 296.432 1632.46 290.912C1630.18 285.392 1629 279.475 1629 273.5C1629 267.525 1630.18 261.608 1632.46 256.088C1634.75 250.568 1638.1 245.552 1642.33 241.327C1646.55 237.102 1651.57 233.75 1657.09 231.463C1662.61 229.177 1668.52 228 1674.5 228L1674.5 273.5V319Z" fill="#1DB275"/>
<path d="M94.5092 49.9852C68.3963 40.7322 39.6771 42.2316 14.6697 54.1534C-10.3377 66.0752 -29.585 87.4429 -38.8379 113.556C-48.0909 139.669 -46.5915 168.388 -34.6697 193.395C-22.7478 218.403 -1.38014 237.65 24.7328 246.903L59.621 148.444L94.5092 49.9852Z" fill="#F6CE4B"/>
<path d="M24.81 246.995C50.9229 256.248 79.6421 254.749 104.649 242.827C129.657 230.905 148.904 209.537 158.157 183.424C167.41 157.312 165.911 128.592 153.989 103.585C142.067 78.5775 120.699 59.3302 94.5864 50.0773L59.6982 148.536L24.81 246.995Z" fill="#1DB275"/>
<circle cx="59.7552" cy="147.907" r="52.7021" transform="rotate(5.16932 59.7552 147.907)" fill="#041C32"/>
<circle cx="1836.63" cy="1025.81" r="103.633" fill="#1DB275"/>
<circle cx="1908.82" cy="1076.43" r="72.1836" fill="#041C32"/>
<circle cx="1775.23" cy="951.232" r="42.2319" fill="#F6CE4B"/>
</svg>
