<svg width="224" height="309" viewBox="0 0 224 309" fill="none" xmlns="http://www.w3.org/2000/svg">
<circle cx="112" cy="112" r="112" fill="#F6CE4B"/>
<path d="M35.924 297.696V300H18.104V274.8H35.384V277.104H20.768V286.068H33.8V288.336H20.768V297.696H35.924ZM58.6448 273.288V300H56.1968V296.256C55.4288 297.528 54.4088 298.5 53.1368 299.172C51.8888 299.844 50.4728 300.18 48.8888 300.18C47.1128 300.18 45.5048 299.772 44.0648 298.956C42.6248 298.14 41.4968 297 40.6808 295.536C39.8648 294.072 39.4568 292.404 39.4568 290.532C39.4568 288.66 39.8648 286.992 40.6808 285.528C41.4968 284.064 42.6248 282.936 44.0648 282.144C45.5048 281.328 47.1128 280.92 48.8888 280.92C50.4248 280.92 51.8048 281.244 53.0288 281.892C54.2768 282.516 55.2968 283.44 56.0888 284.664V273.288H58.6448ZM49.1048 297.912C50.4248 297.912 51.6128 297.612 52.6688 297.012C53.7488 296.388 54.5888 295.512 55.1888 294.384C55.8128 293.256 56.1248 291.972 56.1248 290.532C56.1248 289.092 55.8128 287.808 55.1888 286.68C54.5888 285.552 53.7488 284.688 52.6688 284.088C51.6128 283.464 50.4248 283.152 49.1048 283.152C47.7608 283.152 46.5488 283.464 45.4688 284.088C44.4128 284.688 43.5728 285.552 42.9488 286.68C42.3488 287.808 42.0488 289.092 42.0488 290.532C42.0488 291.972 42.3488 293.256 42.9488 294.384C43.5728 295.512 44.4128 296.388 45.4688 297.012C46.5488 297.612 47.7608 297.912 49.1048 297.912ZM82.8272 281.064V300H80.3792V296.544C79.7072 297.696 78.7832 298.596 77.6072 299.244C76.4312 299.868 75.0872 300.18 73.5752 300.18C71.1032 300.18 69.1472 299.496 67.7072 298.128C66.2912 296.736 65.5832 294.708 65.5832 292.044V281.064H68.1392V291.792C68.1392 293.784 68.6312 295.296 69.6152 296.328C70.5992 297.36 72.0032 297.876 73.8272 297.876C75.8192 297.876 77.3912 297.276 78.5432 296.076C79.6952 294.852 80.2712 293.16 80.2712 291V281.064H82.8272ZM97.8339 300.18C95.9619 300.18 94.2819 299.772 92.7939 298.956C91.3299 298.14 90.1779 297 89.3379 295.536C88.4979 294.048 88.0779 292.38 88.0779 290.532C88.0779 288.684 88.4979 287.028 89.3379 285.564C90.1779 284.1 91.3299 282.96 92.7939 282.144C94.2819 281.328 95.9619 280.92 97.8339 280.92C99.4659 280.92 100.918 281.244 102.19 281.892C103.486 282.516 104.506 283.44 105.25 284.664L103.342 285.96C102.718 285.024 101.926 284.328 100.966 283.872C100.006 283.392 98.9619 283.152 97.8339 283.152C96.4659 283.152 95.2299 283.464 94.1259 284.088C93.0459 284.688 92.1939 285.552 91.5699 286.68C90.9699 287.808 90.6699 289.092 90.6699 290.532C90.6699 291.996 90.9699 293.292 91.5699 294.42C92.1939 295.524 93.0459 296.388 94.1259 297.012C95.2299 297.612 96.4659 297.912 97.8339 297.912C98.9619 297.912 100.006 297.684 100.966 297.228C101.926 296.772 102.718 296.076 103.342 295.14L105.25 296.436C104.506 297.66 103.486 298.596 102.19 299.244C100.894 299.868 99.4419 300.18 97.8339 300.18ZM116.895 280.92C119.367 280.92 121.263 281.544 122.583 282.792C123.903 284.016 124.563 285.84 124.563 288.264V300H122.115V297.048C121.539 298.032 120.687 298.8 119.559 299.352C118.455 299.904 117.135 300.18 115.599 300.18C113.487 300.18 111.807 299.676 110.559 298.668C109.311 297.66 108.687 296.328 108.687 294.672C108.687 293.064 109.263 291.768 110.415 290.784C111.591 289.8 113.451 289.308 115.995 289.308H122.007V288.156C122.007 286.524 121.551 285.288 120.639 284.448C119.727 283.584 118.395 283.152 116.643 283.152C115.443 283.152 114.291 283.356 113.187 283.764C112.083 284.148 111.135 284.688 110.343 285.384L109.191 283.476C110.151 282.66 111.303 282.036 112.647 281.604C113.991 281.148 115.407 280.92 116.895 280.92ZM115.995 298.164C117.435 298.164 118.671 297.84 119.703 297.192C120.735 296.52 121.503 295.56 122.007 294.312V291.216H116.067C112.827 291.216 111.207 292.344 111.207 294.6C111.207 295.704 111.627 296.58 112.467 297.228C113.307 297.852 114.483 298.164 115.995 298.164ZM141.477 298.848C140.997 299.28 140.397 299.616 139.677 299.856C138.981 300.072 138.249 300.18 137.481 300.18C135.705 300.18 134.337 299.7 133.377 298.74C132.417 297.78 131.937 296.424 131.937 294.672V283.224H128.553V281.064H131.937V276.924H134.493V281.064H140.253V283.224H134.493V294.528C134.493 295.656 134.769 296.52 135.321 297.12C135.897 297.696 136.713 297.984 137.769 297.984C138.297 297.984 138.801 297.9 139.281 297.732C139.785 297.564 140.217 297.324 140.577 297.012L141.477 298.848ZM146.13 281.064H148.686V300H146.13V281.064ZM147.426 276.924C146.898 276.924 146.454 276.744 146.094 276.384C145.734 276.024 145.554 275.592 145.554 275.088C145.554 274.608 145.734 274.188 146.094 273.828C146.454 273.468 146.898 273.288 147.426 273.288C147.954 273.288 148.398 273.468 148.758 273.828C149.118 274.164 149.298 274.572 149.298 275.052C149.298 275.58 149.118 276.024 148.758 276.384C148.398 276.744 147.954 276.924 147.426 276.924ZM163.538 300.18C161.714 300.18 160.07 299.772 158.606 298.956C157.142 298.116 155.99 296.964 155.15 295.5C154.31 294.036 153.89 292.38 153.89 290.532C153.89 288.684 154.31 287.028 155.15 285.564C155.99 284.1 157.142 282.96 158.606 282.144C160.07 281.328 161.714 280.92 163.538 280.92C165.362 280.92 167.006 281.328 168.47 282.144C169.934 282.96 171.074 284.1 171.89 285.564C172.73 287.028 173.15 288.684 173.15 290.532C173.15 292.38 172.73 294.036 171.89 295.5C171.074 296.964 169.934 298.116 168.47 298.956C167.006 299.772 165.362 300.18 163.538 300.18ZM163.538 297.912C164.882 297.912 166.082 297.612 167.138 297.012C168.218 296.388 169.058 295.512 169.658 294.384C170.258 293.256 170.558 291.972 170.558 290.532C170.558 289.092 170.258 287.808 169.658 286.68C169.058 285.552 168.218 284.688 167.138 284.088C166.082 283.464 164.882 283.152 163.538 283.152C162.194 283.152 160.982 283.464 159.902 284.088C158.846 284.688 158.006 285.552 157.382 286.68C156.782 287.808 156.482 289.092 156.482 290.532C156.482 291.972 156.782 293.256 157.382 294.384C158.006 295.512 158.846 296.388 159.902 297.012C160.982 297.612 162.194 297.912 163.538 297.912ZM188.017 280.92C190.393 280.92 192.277 281.616 193.669 283.008C195.085 284.376 195.793 286.38 195.793 289.02V300H193.237V289.272C193.237 287.304 192.745 285.804 191.761 284.772C190.777 283.74 189.373 283.224 187.549 283.224C185.509 283.224 183.889 283.836 182.689 285.06C181.513 286.26 180.925 287.928 180.925 290.064V300H178.369V281.064H180.817V284.556C181.513 283.404 182.473 282.516 183.697 281.892C184.945 281.244 186.385 280.92 188.017 280.92Z" fill="white"/>
<path d="M60.2679 74.5359V117.706" stroke="#041C32" stroke-width="8" stroke-linecap="round" stroke-linejoin="round"/>
<path d="M72.2474 156.558C76.5669 149.933 82.471 144.49 89.4248 140.723C96.3787 136.955 104.163 134.982 112.071 134.982C119.98 134.982 127.764 136.955 134.718 140.723C141.672 144.49 147.576 149.933 151.895 156.558" stroke="#041C32" stroke-width="8" stroke-linecap="round" stroke-linejoin="round"/>
<path d="M163.875 74.5357L112.072 91.8035L60.2679 74.5357L112.072 57.2678L163.875 74.5357Z" stroke="#041C32" stroke-width="8" stroke-linecap="round" stroke-linejoin="round"/>
<path d="M134.358 84.3569C138.318 88.6813 140.934 94.0644 141.888 99.85C142.841 105.635 142.091 111.574 139.729 116.94C137.367 122.307 133.494 126.87 128.583 130.074C123.672 133.278 117.935 134.984 112.071 134.984C106.208 134.984 100.471 133.278 95.5599 130.074C90.649 126.87 86.7763 122.307 84.4139 116.94C82.0514 111.574 81.3014 105.635 82.2551 99.85C83.2088 94.0644 85.8251 88.6813 89.7851 84.3569" stroke="#041C32" stroke-width="8" stroke-linecap="round" stroke-linejoin="round"/>
</svg>
