<svg width="238" height="301" viewBox="0 0 238 301" fill="none" xmlns="http://www.w3.org/2000/svg">
<circle cx="124" cy="112" r="112" fill="#F6CE4B"/>
<path d="M21.924 297.696V300H4.104V274.8H21.384V277.104H6.768V286.068H19.8V288.336H6.768V297.696H21.924ZM37.294 280.92C39.67 280.92 41.554 281.616 42.946 283.008C44.362 284.376 45.07 286.38 45.07 289.02V300H42.514V289.272C42.514 287.304 42.022 285.804 41.038 284.772C40.054 283.74 38.65 283.224 36.826 283.224C34.786 283.224 33.166 283.836 31.966 285.06C30.79 286.26 30.202 287.928 30.202 290.064V300H27.646V281.064H30.094V284.556C30.79 283.404 31.75 282.516 32.974 281.892C34.222 281.244 35.662 280.92 37.294 280.92ZM67.5698 281.064L59.1458 300H56.5178L48.1298 281.064H50.7938L57.8858 297.192L65.0498 281.064H67.5698ZM71.1695 281.064H73.7255V300H71.1695V281.064ZM72.4655 276.924C71.9375 276.924 71.4935 276.744 71.1335 276.384C70.7735 276.024 70.5935 275.592 70.5935 275.088C70.5935 274.608 70.7735 274.188 71.1335 273.828C71.4935 273.468 71.9375 273.288 72.4655 273.288C72.9935 273.288 73.4375 273.468 73.7975 273.828C74.1575 274.164 74.3375 274.572 74.3375 275.052C74.3375 275.58 74.1575 276.024 73.7975 276.384C73.4375 276.744 72.9935 276.924 72.4655 276.924ZM83.2854 284.772C83.8854 283.5 84.7734 282.54 85.9494 281.892C87.1494 281.244 88.6254 280.92 90.3774 280.92V283.404L89.7654 283.368C87.7734 283.368 86.2134 283.98 85.0854 285.204C83.9574 286.428 83.3934 288.144 83.3934 290.352V300H80.8374V281.064H83.2854V284.772ZM102.57 300.18C100.746 300.18 99.1016 299.772 97.6376 298.956C96.1736 298.116 95.0216 296.964 94.1816 295.5C93.3416 294.036 92.9216 292.38 92.9216 290.532C92.9216 288.684 93.3416 287.028 94.1816 285.564C95.0216 284.1 96.1736 282.96 97.6376 282.144C99.1016 281.328 100.746 280.92 102.57 280.92C104.394 280.92 106.038 281.328 107.502 282.144C108.966 282.96 110.106 284.1 110.922 285.564C111.762 287.028 112.182 288.684 112.182 290.532C112.182 292.38 111.762 294.036 110.922 295.5C110.106 296.964 108.966 298.116 107.502 298.956C106.038 299.772 104.394 300.18 102.57 300.18ZM102.57 297.912C103.914 297.912 105.114 297.612 106.17 297.012C107.25 296.388 108.09 295.512 108.69 294.384C109.29 293.256 109.59 291.972 109.59 290.532C109.59 289.092 109.29 287.808 108.69 286.68C108.09 285.552 107.25 284.688 106.17 284.088C105.114 283.464 103.914 283.152 102.57 283.152C101.226 283.152 100.014 283.464 98.9336 284.088C97.8776 284.688 97.0376 285.552 96.4136 286.68C95.8136 287.808 95.5136 289.092 95.5136 290.532C95.5136 291.972 95.8136 293.256 96.4136 294.384C97.0376 295.512 97.8776 296.388 98.9336 297.012C100.014 297.612 101.226 297.912 102.57 297.912ZM127.048 280.92C129.424 280.92 131.308 281.616 132.7 283.008C134.116 284.376 134.824 286.38 134.824 289.02V300H132.268V289.272C132.268 287.304 131.776 285.804 130.792 284.772C129.808 283.74 128.404 283.224 126.58 283.224C124.54 283.224 122.92 283.836 121.72 285.06C120.544 286.26 119.956 287.928 119.956 290.064V300H117.4V281.064H119.848V284.556C120.544 283.404 121.504 282.516 122.728 281.892C123.976 281.244 125.416 280.92 127.048 280.92ZM165.379 280.92C167.755 280.92 169.615 281.604 170.959 282.972C172.327 284.34 173.011 286.356 173.011 289.02V300H170.455V289.272C170.455 287.304 169.975 285.804 169.015 284.772C168.079 283.74 166.747 283.224 165.019 283.224C163.051 283.224 161.503 283.836 160.375 285.06C159.247 286.26 158.683 287.928 158.683 290.064V300H156.127V289.272C156.127 287.304 155.647 285.804 154.687 284.772C153.751 283.74 152.407 283.224 150.655 283.224C148.711 283.224 147.163 283.836 146.011 285.06C144.883 286.26 144.319 287.928 144.319 290.064V300H141.763V281.064H144.211V284.52C144.883 283.368 145.819 282.48 147.019 281.856C148.219 281.232 149.599 280.92 151.159 280.92C152.743 280.92 154.111 281.256 155.263 281.928C156.439 282.6 157.315 283.596 157.891 284.916C158.587 283.668 159.583 282.696 160.879 282C162.199 281.28 163.699 280.92 165.379 280.92ZM196.501 291.324H180.661C180.805 293.292 181.561 294.888 182.929 296.112C184.297 297.312 186.025 297.912 188.113 297.912C189.289 297.912 190.369 297.708 191.353 297.3C192.337 296.868 193.189 296.244 193.909 295.428L195.349 297.084C194.509 298.092 193.453 298.86 192.181 299.388C190.933 299.916 189.553 300.18 188.041 300.18C186.097 300.18 184.369 299.772 182.857 298.956C181.369 298.116 180.205 296.964 179.365 295.5C178.525 294.036 178.105 292.38 178.105 290.532C178.105 288.684 178.501 287.028 179.293 285.564C180.109 284.1 181.213 282.96 182.605 282.144C184.021 281.328 185.605 280.92 187.357 280.92C189.109 280.92 190.681 281.328 192.073 282.144C193.465 282.96 194.557 284.1 195.349 285.564C196.141 287.004 196.537 288.66 196.537 290.532L196.501 291.324ZM187.357 283.116C185.533 283.116 183.997 283.704 182.749 284.88C181.525 286.032 180.829 287.544 180.661 289.416H194.089C193.921 287.544 193.213 286.032 191.965 284.88C190.741 283.704 189.205 283.116 187.357 283.116ZM211.388 280.92C213.764 280.92 215.648 281.616 217.04 283.008C218.456 284.376 219.164 286.38 219.164 289.02V300H216.608V289.272C216.608 287.304 216.116 285.804 215.132 284.772C214.148 283.74 212.744 283.224 210.92 283.224C208.88 283.224 207.26 283.836 206.06 285.06C204.884 286.26 204.296 287.928 204.296 290.064V300H201.74V281.064H204.188V284.556C204.884 283.404 205.844 282.516 207.068 281.892C208.316 281.244 209.756 280.92 211.388 280.92ZM236.075 298.848C235.595 299.28 234.995 299.616 234.275 299.856C233.579 300.072 232.847 300.18 232.079 300.18C230.303 300.18 228.935 299.7 227.975 298.74C227.015 297.78 226.535 296.424 226.535 294.672V283.224H223.151V281.064H226.535V276.924H229.091V281.064H234.851V283.224H229.091V294.528C229.091 295.656 229.367 296.52 229.919 297.12C230.495 297.696 231.311 297.984 232.367 297.984C232.895 297.984 233.399 297.9 233.879 297.732C234.383 297.564 234.815 297.324 235.175 297.012L236.075 298.848Z" fill="white"/>
<path d="M139.054 94.2322L81.2634 152.022" stroke="#041C32" stroke-width="8" stroke-linecap="round" stroke-linejoin="round"/>
<path d="M92.8214 140.465C69.7054 101.938 100.527 63.411 166.022 67.2636C169.875 132.759 131.348 163.581 92.8214 140.465Z" stroke="#041C32" stroke-width="8" stroke-linecap="round" stroke-linejoin="round"/>
</svg>
