<svg width="90" height="118" viewBox="0 0 90 118" fill="none" xmlns="http://www.w3.org/2000/svg">
<circle cx="45" cy="45" r="45" fill="#F6CE4B"/>
<path d="M32.2526 102.5V113H31.1576V108.155H24.5876V113H23.4776V102.5H24.5876V107.18H31.1576V102.5H32.2526ZM42.3247 109.385H35.7247C35.7847 110.205 36.0997 110.87 36.6697 111.38C37.2397 111.88 37.9597 112.13 38.8297 112.13C39.3197 112.13 39.7697 112.045 40.1797 111.875C40.5897 111.695 40.9447 111.435 41.2447 111.095L41.8447 111.785C41.4947 112.205 41.0547 112.525 40.5247 112.745C40.0047 112.965 39.4297 113.075 38.7997 113.075C37.9897 113.075 37.2697 112.905 36.6397 112.565C36.0197 112.215 35.5347 111.735 35.1847 111.125C34.8347 110.515 34.6597 109.825 34.6597 109.055C34.6597 108.285 34.8247 107.595 35.1547 106.985C35.4947 106.375 35.9547 105.9 36.5347 105.56C37.1247 105.22 37.7847 105.05 38.5147 105.05C39.2447 105.05 39.8997 105.22 40.4797 105.56C41.0597 105.9 41.5147 106.375 41.8447 106.985C42.1747 107.585 42.3397 108.275 42.3397 109.055L42.3247 109.385ZM38.5147 105.965C37.7547 105.965 37.1147 106.21 36.5947 106.7C36.0847 107.18 35.7947 107.81 35.7247 108.59H41.3197C41.2497 107.81 40.9547 107.18 40.4347 106.7C39.9247 106.21 39.2847 105.965 38.5147 105.965ZM47.0477 105.05C48.0777 105.05 48.8677 105.31 49.4177 105.83C49.9677 106.34 50.2427 107.1 50.2427 108.11V113H49.2227V111.77C48.9827 112.18 48.6277 112.5 48.1577 112.73C47.6977 112.96 47.1477 113.075 46.5077 113.075C45.6277 113.075 44.9277 112.865 44.4077 112.445C43.8877 112.025 43.6277 111.47 43.6277 110.78C43.6277 110.11 43.8677 109.57 44.3477 109.16C44.8377 108.75 45.6127 108.545 46.6727 108.545H49.1777V108.065C49.1777 107.385 48.9877 106.87 48.6077 106.52C48.2277 106.16 47.6727 105.98 46.9427 105.98C46.4427 105.98 45.9627 106.065 45.5027 106.235C45.0427 106.395 44.6477 106.62 44.3177 106.91L43.8377 106.115C44.2377 105.775 44.7177 105.515 45.2777 105.335C45.8377 105.145 46.4277 105.05 47.0477 105.05ZM46.6727 112.235C47.2727 112.235 47.7877 112.1 48.2177 111.83C48.6477 111.55 48.9677 111.15 49.1777 110.63V109.34H46.7027C45.3527 109.34 44.6777 109.81 44.6777 110.75C44.6777 111.21 44.8527 111.575 45.2027 111.845C45.5527 112.105 46.0427 112.235 46.6727 112.235ZM53.1354 101.87H54.2004V113H53.1354V101.87ZM61.348 112.52C61.148 112.7 60.898 112.84 60.598 112.94C60.308 113.03 60.003 113.075 59.683 113.075C58.943 113.075 58.373 112.875 57.973 112.475C57.573 112.075 57.373 111.51 57.373 110.78V106.01H55.963V105.11H57.373V103.385H58.438V105.11H60.838V106.01H58.438V110.72C58.438 111.19 58.553 111.55 58.783 111.8C59.023 112.04 59.363 112.16 59.803 112.16C60.023 112.16 60.233 112.125 60.433 112.055C60.643 111.985 60.823 111.885 60.973 111.755L61.348 112.52ZM67.3068 105.05C68.2968 105.05 69.0818 105.34 69.6618 105.92C70.2518 106.49 70.5468 107.325 70.5468 108.425V113H69.4818V108.53C69.4818 107.71 69.2768 107.085 68.8668 106.655C68.4568 106.225 67.8718 106.01 67.1118 106.01C66.2618 106.01 65.5868 106.265 65.0868 106.775C64.5968 107.275 64.3518 107.97 64.3518 108.86V113H63.2868V101.87H64.3518V106.49C64.6418 106.03 65.0418 105.675 65.5518 105.425C66.0618 105.175 66.6468 105.05 67.3068 105.05Z" fill="white"/>
<path d="M22.5001 45H31.8751L35.6251 39.375L43.1251 50.625L46.8751 45H52.5001" stroke="#041C32" stroke-width="4" stroke-linecap="round" stroke-linejoin="round"/>
<path d="M21.5861 35.672C21.7824 32.9346 22.8968 30.3437 24.749 28.3186C26.6011 26.2935 29.0825 24.9528 31.7915 24.5135C34.5004 24.0742 37.2784 24.5621 39.6756 25.8981C42.0727 27.2341 43.9488 29.3401 45.0001 31.8751V31.8751C46.0838 29.2744 48.035 27.1294 50.5219 25.8052C53.0087 24.4809 55.8776 24.0592 58.6403 24.6118C61.403 25.1643 63.889 26.657 65.6752 28.8358C67.4615 31.0147 68.4376 33.7451 68.4376 36.5626C68.4376 52.5001 45.0001 65.6251 45.0001 65.6251C45.0001 65.6251 37.1017 61.1954 30.4689 54.3751" stroke="#041C32" stroke-width="4" stroke-linecap="round" stroke-linejoin="round"/>
</svg>
