<svg width="90" height="120" viewBox="0 0 90 120" fill="none" xmlns="http://www.w3.org/2000/svg">
<path d="M27.615 104.5V115H26.55V106.6L22.425 113.665H21.9L17.775 106.645V115H16.71V104.5H17.625L22.185 112.285L26.7 104.5H27.615ZM34.0362 115.075C33.2762 115.075 32.5912 114.905 31.9812 114.565C31.3712 114.215 30.8912 113.735 30.5412 113.125C30.1912 112.515 30.0162 111.825 30.0162 111.055C30.0162 110.285 30.1912 109.595 30.5412 108.985C30.8912 108.375 31.3712 107.9 31.9812 107.56C32.5912 107.22 33.2762 107.05 34.0362 107.05C34.7962 107.05 35.4812 107.22 36.0912 107.56C36.7012 107.9 37.1762 108.375 37.5162 108.985C37.8662 109.595 38.0412 110.285 38.0412 111.055C38.0412 111.825 37.8662 112.515 37.5162 113.125C37.1762 113.735 36.7012 114.215 36.0912 114.565C35.4812 114.905 34.7962 115.075 34.0362 115.075ZM34.0362 114.13C34.5962 114.13 35.0962 114.005 35.5362 113.755C35.9862 113.495 36.3362 113.13 36.5862 112.66C36.8362 112.19 36.9612 111.655 36.9612 111.055C36.9612 110.455 36.8362 109.92 36.5862 109.45C36.3362 108.98 35.9862 108.62 35.5362 108.37C35.0962 108.11 34.5962 107.98 34.0362 107.98C33.4762 107.98 32.9712 108.11 32.5212 108.37C32.0812 108.62 31.7312 108.98 31.4712 109.45C31.2212 109.92 31.0962 110.455 31.0962 111.055C31.0962 111.655 31.2212 112.19 31.4712 112.66C31.7312 113.13 32.0812 113.495 32.5212 113.755C32.9712 114.005 33.4762 114.13 34.0362 114.13ZM44.2805 107.05C45.0205 107.05 45.6905 107.22 46.2905 107.56C46.8905 107.89 47.3605 108.36 47.7005 108.97C48.0405 109.58 48.2105 110.275 48.2105 111.055C48.2105 111.835 48.0405 112.53 47.7005 113.14C47.3605 113.75 46.8905 114.225 46.2905 114.565C45.6905 114.905 45.0205 115.075 44.2805 115.075C43.6205 115.075 43.0255 114.935 42.4955 114.655C41.9755 114.375 41.5555 113.97 41.2355 113.44V115H40.2155V103.87H41.2805V108.61C41.6105 108.1 42.0305 107.715 42.5405 107.455C43.0605 107.185 43.6405 107.05 44.2805 107.05ZM44.2055 114.13C44.7555 114.13 45.2555 114.005 45.7055 113.755C46.1555 113.495 46.5055 113.13 46.7555 112.66C47.0155 112.19 47.1455 111.655 47.1455 111.055C47.1455 110.455 47.0155 109.92 46.7555 109.45C46.5055 108.98 46.1555 108.62 45.7055 108.37C45.2555 108.11 44.7555 107.98 44.2055 107.98C43.6455 107.98 43.1405 108.11 42.6905 108.37C42.2505 108.62 41.9005 108.98 41.6405 109.45C41.3905 109.92 41.2655 110.455 41.2655 111.055C41.2655 111.655 41.3905 112.19 41.6405 112.66C41.9005 113.13 42.2505 113.495 42.6905 113.755C43.1405 114.005 43.6455 114.13 44.2055 114.13ZM50.3815 107.11H51.4465V115H50.3815V107.11ZM50.9215 105.385C50.7015 105.385 50.5165 105.31 50.3665 105.16C50.2165 105.01 50.1415 104.83 50.1415 104.62C50.1415 104.42 50.2165 104.245 50.3665 104.095C50.5165 103.945 50.7015 103.87 50.9215 103.87C51.1415 103.87 51.3265 103.945 51.4765 104.095C51.6265 104.235 51.7015 104.405 51.7015 104.605C51.7015 104.825 51.6265 105.01 51.4765 105.16C51.3265 105.31 51.1415 105.385 50.9215 105.385ZM54.4098 103.87H55.4748V115H54.4098V103.87ZM58.4381 107.11H59.5031V115H58.4381V107.11ZM58.9781 105.385C58.7581 105.385 58.5731 105.31 58.4231 105.16C58.2731 105.01 58.1981 104.83 58.1981 104.62C58.1981 104.42 58.2731 104.245 58.4231 104.095C58.5731 103.945 58.7581 103.87 58.9781 103.87C59.1981 103.87 59.3831 103.945 59.5331 104.095C59.6831 104.235 59.7581 104.405 59.7581 104.605C59.7581 104.825 59.6831 105.01 59.5331 105.16C59.3831 105.31 59.1981 105.385 58.9781 105.385ZM66.6214 114.52C66.4214 114.7 66.1714 114.84 65.8714 114.94C65.5814 115.03 65.2764 115.075 64.9564 115.075C64.2164 115.075 63.6464 114.875 63.2464 114.475C62.8464 114.075 62.6464 113.51 62.6464 112.78V108.01H61.2364V107.11H62.6464V105.385H63.7114V107.11H66.1114V108.01H63.7114V112.72C63.7114 113.19 63.8264 113.55 64.0564 113.8C64.2964 114.04 64.6364 114.16 65.0764 114.16C65.2964 114.16 65.5064 114.125 65.7064 114.055C65.9164 113.985 66.0964 113.885 66.2464 113.755L66.6214 114.52ZM75.0437 107.11L71.0987 115.945C70.7787 116.685 70.4087 117.21 69.9887 117.52C69.5687 117.83 69.0637 117.985 68.4737 117.985C68.0937 117.985 67.7387 117.925 67.4087 117.805C67.0787 117.685 66.7937 117.505 66.5537 117.265L67.0487 116.47C67.4487 116.87 67.9287 117.07 68.4887 117.07C68.8487 117.07 69.1537 116.97 69.4037 116.77C69.6637 116.57 69.9037 116.23 70.1237 115.75L70.4687 114.985L66.9437 107.11H68.0537L71.0237 113.815L73.9937 107.11H75.0437Z" fill="white"/>
<circle cx="45" cy="45" r="45" fill="#F6CE4B"/>
<path d="M18.75 43.125H71.25" stroke="#041C32" stroke-width="4" stroke-linecap="round" stroke-linejoin="round"/>
<path d="M67.4998 58.125V63.75C67.4998 64.2473 67.3023 64.7242 66.9507 65.0758C66.599 65.4275 66.1221 65.625 65.6248 65.625H59.9998C59.5026 65.625 59.0257 65.4275 58.674 65.0758C58.3224 64.7242 58.1248 64.2473 58.1248 63.75V58.125" stroke="#041C32" stroke-width="4" stroke-linecap="round" stroke-linejoin="round"/>
<path d="M31.8749 58.125V63.75C31.8749 64.2473 31.6774 64.7242 31.3258 65.0758C30.9741 65.4275 30.4972 65.625 29.9999 65.625H24.3749C23.8777 65.625 23.4007 65.4275 23.0491 65.0758C22.6975 64.7242 22.4999 64.2473 22.4999 63.75V58.125" stroke="#041C32" stroke-width="4" stroke-linecap="round" stroke-linejoin="round"/>
<path d="M30.0001 50.6251H33.7501" stroke="#041C32" stroke-width="4" stroke-linecap="round" stroke-linejoin="round"/>
<path d="M56.25 50.6251H60" stroke="#041C32" stroke-width="4" stroke-linecap="round" stroke-linejoin="round"/>
<path d="M67.4999 43.125L60.4921 27.375C60.3467 27.0418 60.1076 26.7581 59.8038 26.5583C59.5 26.3586 59.1447 26.2515 58.7812 26.25H31.2187C30.8551 26.2515 30.4999 26.3586 30.1961 26.5583C29.8923 26.7581 29.6532 27.0418 29.5077 27.375L22.4999 43.125V58.125H67.4999V43.125Z" stroke="#041C32" stroke-width="4" stroke-linecap="round" stroke-linejoin="round"/>
</svg>
