<svg width="90" height="113" viewBox="0 0 90 113" fill="none" xmlns="http://www.w3.org/2000/svg">
<circle cx="45" cy="45" r="45" fill="#F6CE4B"/>
<path d="M15.201 107.04V108H7.77604V97.5H14.976V98.46H8.88604V102.195H14.316V103.14H8.88604V107.04H15.201ZM24.668 96.87V108H23.648V106.44C23.328 106.97 22.903 107.375 22.373 107.655C21.853 107.935 21.263 108.075 20.603 108.075C19.863 108.075 19.193 107.905 18.593 107.565C17.993 107.225 17.523 106.75 17.183 106.14C16.843 105.53 16.673 104.835 16.673 104.055C16.673 103.275 16.843 102.58 17.183 101.97C17.523 101.36 17.993 100.89 18.593 100.56C19.193 100.22 19.863 100.05 20.603 100.05C21.243 100.05 21.818 100.185 22.328 100.455C22.848 100.715 23.273 101.1 23.603 101.61V96.87H24.668ZM20.693 107.13C21.243 107.13 21.738 107.005 22.178 106.755C22.628 106.495 22.978 106.13 23.228 105.66C23.488 105.19 23.618 104.655 23.618 104.055C23.618 103.455 23.488 102.92 23.228 102.45C22.978 101.98 22.628 101.62 22.178 101.37C21.738 101.11 21.243 100.98 20.693 100.98C20.133 100.98 19.628 101.11 19.178 101.37C18.738 101.62 18.388 101.98 18.128 102.45C17.878 102.92 17.753 103.455 17.753 104.055C17.753 104.655 17.878 105.19 18.128 105.66C18.388 106.13 18.738 106.495 19.178 106.755C19.628 107.005 20.133 107.13 20.693 107.13ZM34.744 100.11V108H33.724V106.56C33.444 107.04 33.059 107.415 32.569 107.685C32.079 107.945 31.519 108.075 30.889 108.075C29.859 108.075 29.044 107.79 28.444 107.22C27.854 106.64 27.559 105.795 27.559 104.685V100.11H28.624V104.58C28.624 105.41 28.829 106.04 29.239 106.47C29.649 106.9 30.234 107.115 30.994 107.115C31.824 107.115 32.479 106.865 32.959 106.365C33.439 105.855 33.679 105.15 33.679 104.25V100.11H34.744ZM40.9968 108.075C40.2168 108.075 39.5168 107.905 38.8968 107.565C38.2868 107.225 37.8068 106.75 37.4568 106.14C37.1068 105.52 36.9318 104.825 36.9318 104.055C36.9318 103.285 37.1068 102.595 37.4568 101.985C37.8068 101.375 38.2868 100.9 38.8968 100.56C39.5168 100.22 40.2168 100.05 40.9968 100.05C41.6768 100.05 42.2818 100.185 42.8118 100.455C43.3518 100.715 43.7768 101.1 44.0868 101.61L43.2918 102.15C43.0318 101.76 42.7018 101.47 42.3018 101.28C41.9018 101.08 41.4668 100.98 40.9968 100.98C40.4268 100.98 39.9118 101.11 39.4518 101.37C39.0018 101.62 38.6468 101.98 38.3868 102.45C38.1368 102.92 38.0118 103.455 38.0118 104.055C38.0118 104.665 38.1368 105.205 38.3868 105.675C38.6468 106.135 39.0018 106.495 39.4518 106.755C39.9118 107.005 40.4268 107.13 40.9968 107.13C41.4668 107.13 41.9018 107.035 42.3018 106.845C42.7018 106.655 43.0318 106.365 43.2918 105.975L44.0868 106.515C43.7768 107.025 43.3518 107.415 42.8118 107.685C42.2718 107.945 41.6668 108.075 40.9968 108.075ZM48.939 100.05C49.969 100.05 50.759 100.31 51.309 100.83C51.859 101.34 52.134 102.1 52.134 103.11V108H51.114V106.77C50.874 107.18 50.519 107.5 50.049 107.73C49.589 107.96 49.039 108.075 48.399 108.075C47.519 108.075 46.819 107.865 46.299 107.445C45.779 107.025 45.519 106.47 45.519 105.78C45.519 105.11 45.759 104.57 46.239 104.16C46.729 103.75 47.504 103.545 48.564 103.545H51.069V103.065C51.069 102.385 50.879 101.87 50.499 101.52C50.119 101.16 49.564 100.98 48.834 100.98C48.334 100.98 47.854 101.065 47.394 101.235C46.934 101.395 46.539 101.62 46.209 101.91L45.729 101.115C46.129 100.775 46.609 100.515 47.169 100.335C47.729 100.145 48.319 100.05 48.939 100.05ZM48.564 107.235C49.164 107.235 49.679 107.1 50.109 106.83C50.539 106.55 50.859 106.15 51.069 105.63V104.34H48.594C47.244 104.34 46.569 104.81 46.569 105.75C46.569 106.21 46.744 106.575 47.094 106.845C47.444 107.105 47.934 107.235 48.564 107.235ZM59.1816 107.52C58.9816 107.7 58.7316 107.84 58.4316 107.94C58.1416 108.03 57.8366 108.075 57.5166 108.075C56.7766 108.075 56.2066 107.875 55.8066 107.475C55.4066 107.075 55.2066 106.51 55.2066 105.78V101.01H53.7966V100.11H55.2066V98.385H56.2716V100.11H58.6716V101.01H56.2716V105.72C56.2716 106.19 56.3866 106.55 56.6166 106.8C56.8566 107.04 57.1966 107.16 57.6366 107.16C57.8566 107.16 58.0666 107.125 58.2666 107.055C58.4766 106.985 58.6566 106.885 58.8066 106.755L59.1816 107.52ZM61.1204 100.11H62.1854V108H61.1204V100.11ZM61.6604 98.385C61.4404 98.385 61.2554 98.31 61.1054 98.16C60.9554 98.01 60.8804 97.83 60.8804 97.62C60.8804 97.42 60.9554 97.245 61.1054 97.095C61.2554 96.945 61.4404 96.87 61.6604 96.87C61.8804 96.87 62.0654 96.945 62.2154 97.095C62.3654 97.235 62.4404 97.405 62.4404 97.605C62.4404 97.825 62.3654 98.01 62.2154 98.16C62.0654 98.31 61.8804 98.385 61.6604 98.385ZM68.3737 108.075C67.6137 108.075 66.9287 107.905 66.3187 107.565C65.7087 107.215 65.2287 106.735 64.8787 106.125C64.5287 105.515 64.3537 104.825 64.3537 104.055C64.3537 103.285 64.5287 102.595 64.8787 101.985C65.2287 101.375 65.7087 100.9 66.3187 100.56C66.9287 100.22 67.6137 100.05 68.3737 100.05C69.1337 100.05 69.8187 100.22 70.4287 100.56C71.0387 100.9 71.5137 101.375 71.8537 101.985C72.2037 102.595 72.3787 103.285 72.3787 104.055C72.3787 104.825 72.2037 105.515 71.8537 106.125C71.5137 106.735 71.0387 107.215 70.4287 107.565C69.8187 107.905 69.1337 108.075 68.3737 108.075ZM68.3737 107.13C68.9337 107.13 69.4337 107.005 69.8737 106.755C70.3237 106.495 70.6737 106.13 70.9237 105.66C71.1737 105.19 71.2987 104.655 71.2987 104.055C71.2987 103.455 71.1737 102.92 70.9237 102.45C70.6737 101.98 70.3237 101.62 69.8737 101.37C69.4337 101.11 68.9337 100.98 68.3737 100.98C67.8137 100.98 67.3087 101.11 66.8587 101.37C66.4187 101.62 66.0687 101.98 65.8087 102.45C65.5587 102.92 65.4337 103.455 65.4337 104.055C65.4337 104.655 65.5587 105.19 65.8087 105.66C66.0687 106.13 66.4187 106.495 66.8587 106.755C67.3087 107.005 67.8137 107.13 68.3737 107.13ZM78.573 100.05C79.563 100.05 80.348 100.34 80.928 100.92C81.518 101.49 81.813 102.325 81.813 103.425V108H80.748V103.53C80.748 102.71 80.543 102.085 80.133 101.655C79.723 101.225 79.138 101.01 78.378 101.01C77.528 101.01 76.853 101.265 76.353 101.775C75.863 102.275 75.618 102.97 75.618 103.86V108H74.553V100.11H75.573V101.565C75.863 101.085 76.263 100.715 76.773 100.455C77.293 100.185 77.893 100.05 78.573 100.05Z" fill="white"/>
<path d="M24.1316 29.9999V48.7499" stroke="#041C32" stroke-width="4" stroke-linecap="round" stroke-linejoin="round"/>
<path d="M29.3345 65.6251C31.2106 62.7476 33.7749 60.3836 36.7952 58.7472C39.8155 57.1109 43.1963 56.2539 46.6314 56.2539C50.0665 56.2539 53.4473 57.1109 56.4675 58.7472C59.4878 60.3836 62.0522 62.7476 63.9282 65.6251" stroke="#041C32" stroke-width="4" stroke-linecap="round" stroke-linejoin="round"/>
<path d="M69.1316 30L46.6316 37.5L24.1316 30L46.6316 22.5L69.1316 30Z" stroke="#041C32" stroke-width="4" stroke-linecap="round" stroke-linejoin="round"/>
<path d="M56.3111 34.2655C58.031 36.1437 59.1674 38.4818 59.5816 40.9946C59.9959 43.5075 59.6701 46.0866 58.644 48.4175C57.6179 50.7484 55.9359 52.7304 53.8029 54.122C51.6699 55.5135 49.1782 56.2544 46.6314 56.2544C44.0846 56.2544 41.5929 55.5135 39.4599 54.122C37.3269 52.7304 35.6449 50.7484 34.6188 48.4175C33.5927 46.0866 33.2669 43.5075 33.6812 40.9946C34.0954 38.4818 35.2318 36.1437 36.9517 34.2655" stroke="#041C32" stroke-width="4" stroke-linecap="round" stroke-linejoin="round"/>
</svg>
