<svg width="93" height="120" viewBox="0 0 93 120" fill="none" xmlns="http://www.w3.org/2000/svg">
<circle cx="45" cy="45" r="45" fill="#F6CE4B"/>
<path d="M20.75 106.46H17.06V105.5H25.55V106.46H21.86V116H20.75V106.46ZM29.503 116.075C28.743 116.075 28.058 115.905 27.448 115.565C26.838 115.215 26.358 114.735 26.008 114.125C25.658 113.515 25.483 112.825 25.483 112.055C25.483 111.285 25.658 110.595 26.008 109.985C26.358 109.375 26.838 108.9 27.448 108.56C28.058 108.22 28.743 108.05 29.503 108.05C30.263 108.05 30.948 108.22 31.558 108.56C32.168 108.9 32.643 109.375 32.983 109.985C33.333 110.595 33.508 111.285 33.508 112.055C33.508 112.825 33.333 113.515 32.983 114.125C32.643 114.735 32.168 115.215 31.558 115.565C30.948 115.905 30.263 116.075 29.503 116.075ZM29.503 115.13C30.063 115.13 30.563 115.005 31.003 114.755C31.453 114.495 31.803 114.13 32.053 113.66C32.303 113.19 32.428 112.655 32.428 112.055C32.428 111.455 32.303 110.92 32.053 110.45C31.803 109.98 31.453 109.62 31.003 109.37C30.563 109.11 30.063 108.98 29.503 108.98C28.943 108.98 28.438 109.11 27.988 109.37C27.548 109.62 27.198 109.98 26.938 110.45C26.688 110.92 26.563 111.455 26.563 112.055C26.563 112.655 26.688 113.19 26.938 113.66C27.198 114.13 27.548 114.495 27.988 114.755C28.438 115.005 28.943 115.13 29.503 115.13ZM42.7923 108.11V116H41.7723V114.56C41.4923 115.04 41.1073 115.415 40.6173 115.685C40.1273 115.945 39.5673 116.075 38.9373 116.075C37.9073 116.075 37.0923 115.79 36.4923 115.22C35.9023 114.64 35.6073 113.795 35.6073 112.685V108.11H36.6723V112.58C36.6723 113.41 36.8773 114.04 37.2873 114.47C37.6973 114.9 38.2823 115.115 39.0423 115.115C39.8723 115.115 40.5273 114.865 41.0073 114.365C41.4873 113.855 41.7273 113.15 41.7273 112.25V108.11H42.7923ZM46.795 109.655C47.045 109.125 47.415 108.725 47.905 108.455C48.405 108.185 49.02 108.05 49.75 108.05V109.085L49.495 109.07C48.665 109.07 48.015 109.325 47.545 109.835C47.075 110.345 46.84 111.06 46.84 111.98V116H45.775V108.11H46.795V109.655ZM51.6784 108.11H52.7434V116H51.6784V108.11ZM52.2184 106.385C51.9984 106.385 51.8134 106.31 51.6634 106.16C51.5134 106.01 51.4384 105.83 51.4384 105.62C51.4384 105.42 51.5134 105.245 51.6634 105.095C51.8134 104.945 51.9984 104.87 52.2184 104.87C52.4384 104.87 52.6234 104.945 52.7734 105.095C52.9234 105.235 52.9984 105.405 52.9984 105.605C52.9984 105.825 52.9234 106.01 52.7734 106.16C52.6234 106.31 52.4384 106.385 52.2184 106.385ZM57.8217 116.075C57.1817 116.075 56.5667 115.985 55.9767 115.805C55.3967 115.615 54.9417 115.38 54.6117 115.1L55.0917 114.26C55.4217 114.52 55.8367 114.735 56.3367 114.905C56.8367 115.065 57.3567 115.145 57.8967 115.145C58.6167 115.145 59.1467 115.035 59.4867 114.815C59.8367 114.585 60.0117 114.265 60.0117 113.855C60.0117 113.565 59.9167 113.34 59.7267 113.18C59.5367 113.01 59.2967 112.885 59.0067 112.805C58.7167 112.715 58.3317 112.63 57.8517 112.55C57.2117 112.43 56.6967 112.31 56.3067 112.19C55.9167 112.06 55.5817 111.845 55.3017 111.545C55.0317 111.245 54.8967 110.83 54.8967 110.3C54.8967 109.64 55.1717 109.1 55.7217 108.68C56.2717 108.26 57.0367 108.05 58.0167 108.05C58.5267 108.05 59.0367 108.12 59.5467 108.26C60.0567 108.39 60.4767 108.565 60.8067 108.785L60.3417 109.64C59.6917 109.19 58.9167 108.965 58.0167 108.965C57.3367 108.965 56.8217 109.085 56.4717 109.325C56.1317 109.565 55.9617 109.88 55.9617 110.27C55.9617 110.57 56.0567 110.81 56.2467 110.99C56.4467 111.17 56.6917 111.305 56.9817 111.395C57.2717 111.475 57.6717 111.56 58.1817 111.65C58.8117 111.77 59.3167 111.89 59.6967 112.01C60.0767 112.13 60.4017 112.335 60.6717 112.625C60.9417 112.915 61.0767 113.315 61.0767 113.825C61.0767 114.515 60.7867 115.065 60.2067 115.475C59.6367 115.875 58.8417 116.075 57.8217 116.075ZM72.8855 108.05C73.8755 108.05 74.6505 108.335 75.2105 108.905C75.7805 109.475 76.0655 110.315 76.0655 111.425V116H75.0005V111.53C75.0005 110.71 74.8005 110.085 74.4005 109.655C74.0105 109.225 73.4555 109.01 72.7355 109.01C71.9155 109.01 71.2705 109.265 70.8005 109.775C70.3305 110.275 70.0955 110.97 70.0955 111.86V116H69.0305V111.53C69.0305 110.71 68.8305 110.085 68.4305 109.655C68.0405 109.225 67.4805 109.01 66.7505 109.01C65.9405 109.01 65.2955 109.265 64.8155 109.775C64.3455 110.275 64.1105 110.97 64.1105 111.86V116H63.0455V108.11H64.0655V109.55C64.3455 109.07 64.7355 108.7 65.2355 108.44C65.7355 108.18 66.3105 108.05 66.9605 108.05C67.6205 108.05 68.1905 108.19 68.6705 108.47C69.1605 108.75 69.5255 109.165 69.7655 109.715C70.0555 109.195 70.4705 108.79 71.0105 108.5C71.5605 108.2 72.1855 108.05 72.8855 108.05Z" fill="white"/>
<path d="M20.6253 65.6249H54.3753" stroke="#041C32" stroke-width="4" stroke-linecap="round" stroke-linejoin="round"/>
<path d="M18.961 47.9062L27.797 56.1797C28.9751 57.2841 30.4783 57.9788 32.083 58.1604C33.6876 58.3419 35.308 58.0007 36.7032 57.1875L72.1876 36.5625L67.8282 31.2187C66.6942 29.8337 65.1022 28.9 63.3399 28.5862C61.5776 28.2725 59.7612 28.5993 58.2188 29.5078L47.8126 35.625L33.7501 30.9375L29.8829 32.6016C29.5936 32.7255 29.3401 32.9204 29.1459 33.1681C28.9517 33.4158 28.823 33.7084 28.7716 34.019C28.7202 34.3295 28.7479 34.648 28.852 34.9451C28.9561 35.2421 29.1333 35.5082 29.3673 35.7187L36.5626 42.1875L30.0001 45.9375L23.4376 43.125L19.5001 44.8125C19.2136 44.9355 18.9623 45.1281 18.769 45.3727C18.5757 45.6173 18.4465 45.9063 18.3929 46.2134C18.3394 46.5206 18.3633 46.8362 18.4625 47.1318C18.5617 47.4274 18.733 47.6936 18.961 47.9062V47.9062Z" stroke="#041C32" stroke-width="4" stroke-linecap="round" stroke-linejoin="round"/>
</svg>
