<svg width="1920" height="1024" viewBox="0 0 1920 1024" fill="none" xmlns="http://www.w3.org/2000/svg">
<rect x="1665.44" y="-49.7078" width="1947" height="582.628" transform="rotate(120 1665.44 -49.7078)" fill="#1DB275"/>
<circle cx="830.454" cy="747.101" r="99.4541" fill="#1DB275"/>
<circle cx="899.727" cy="795.679" r="69.2729" fill="#041C32"/>
<circle cx="771.529" cy="675.529" r="40.529" fill="#F6CE4B"/>
<rect x="822" y="260" width="871" height="501" fill="#F6CE4B"/>
<path d="M94.5092 49.9852C68.3963 40.7322 39.6771 42.2316 14.6697 54.1534C-10.3377 66.0752 -29.585 87.4429 -38.8379 113.556C-48.0909 139.669 -46.5915 168.388 -34.6697 193.395C-22.7478 218.403 -1.38014 237.65 24.7328 246.903L59.621 148.444L94.5092 49.9852Z" fill="#F6CE4B"/>
<path d="M24.8101 246.995C50.9231 256.248 79.6422 254.749 104.65 242.827C129.657 230.905 148.904 209.538 158.157 183.425C167.41 157.312 165.911 128.593 153.989 103.585C142.067 78.5776 120.699 59.3304 94.5865 50.0774L59.6983 148.536L24.8101 246.995Z" fill="#1DB275"/>
<circle cx="59.7552" cy="147.907" r="52.7021" transform="rotate(5.16932 59.7552 147.907)" fill="#041C32"/>
<circle cx="1836.63" cy="1025.81" r="103.633" fill="#1DB275"/>
<circle cx="1908.82" cy="1076.43" r="72.1836" fill="#041C32"/>
<circle cx="1775.23" cy="951.232" r="42.2319" fill="#F6CE4B"/>
</svg>
