<svg width="199" height="1599" viewBox="0 0 199 1599" fill="none" xmlns="http://www.w3.org/2000/svg">
<path d="M199 0C176.544 -2.67786e-07 154.308 4.42305 133.561 13.0166C112.814 21.6102 93.9636 34.2059 78.0847 50.0847C62.2059 65.9636 49.6102 84.8145 41.0166 105.561C32.423 126.308 28 148.544 28 171C28 193.456 32.423 215.692 41.0166 236.439C49.6102 257.186 62.2059 276.036 78.0847 291.915C93.9636 307.794 112.814 320.39 133.561 328.983C154.308 337.577 176.544 342 199 342L199 171V0Z" fill="#F6CE4B"/>
<path d="M199 381C176.544 381 154.308 385.423 133.561 394.017C112.814 402.61 93.9636 415.206 78.0847 431.085C62.2059 446.964 49.6102 465.814 41.0166 486.561C32.423 507.308 28 529.544 28 552C28 574.456 32.423 596.692 41.0166 617.439C49.6102 638.186 62.2059 657.036 78.0847 672.915C93.9636 688.794 112.814 701.39 133.561 709.983C154.308 718.577 176.544 723 199 723L199 552V381Z" fill="#1DB275"/>
<path d="M270.14 167.57C270.14 158.171 268.289 148.865 264.692 140.181C261.095 131.498 255.824 123.608 249.178 116.962C242.532 110.316 234.642 105.045 225.959 101.448C217.275 97.8512 207.969 96 198.57 96V167.57H270.14Z" fill="#F6CE4B"/>
<path d="M198.57 239.14C207.969 239.14 217.275 237.289 225.959 233.692C234.642 230.095 242.532 224.824 249.178 218.178C255.824 211.532 261.095 203.642 264.692 194.959C268.289 186.275 270.14 176.969 270.14 167.57H198.57V239.14Z" fill="#041C32"/>
<path d="M198.57 239.14C189.171 239.14 179.865 237.289 171.181 233.692C162.498 230.095 154.608 224.824 147.962 218.178C141.316 211.532 136.045 203.642 132.448 194.959C128.851 186.275 127 176.969 127 167.57C127 158.171 128.851 148.865 132.448 140.181C136.045 131.498 141.316 123.608 147.962 116.962C154.608 110.316 162.498 105.045 171.181 101.448C179.865 97.8512 189.171 96 198.57 96L198.57 167.57V239.14Z" fill="#1DB275"/>
<path d="M127 548.57C127 557.969 128.851 567.276 132.448 575.959C136.045 584.642 141.316 592.532 147.962 599.178C154.608 605.824 162.498 611.095 171.181 614.692C179.865 618.289 189.171 620.14 198.57 620.14V548.57H127Z" fill="#F6CE4B"/>
<path d="M198.57 477C189.171 477 179.865 478.851 171.181 482.448C162.498 486.045 154.608 491.317 147.962 497.963C141.316 504.608 136.045 512.498 132.448 521.181C128.851 529.865 127 539.171 127 548.57H198.57V477Z" fill="#041C32"/>
<path d="M198.57 477C207.969 477 217.275 478.851 225.959 482.448C234.642 486.045 242.532 491.317 249.178 497.963C255.824 504.608 261.095 512.498 264.692 521.181C268.289 529.865 270.14 539.171 270.14 548.57C270.14 557.969 268.289 567.276 264.692 575.959C261.095 584.642 255.824 592.532 249.178 599.178C242.532 605.824 234.642 611.095 225.959 614.692C217.275 618.289 207.969 620.14 198.57 620.14L198.57 548.57V477Z" fill="#1DB275"/>
<circle cx="122.83" cy="1534.45" r="122.83" fill="#1DB275"/>
<circle cx="208.385" cy="1594.45" r="85.555" fill="#041C32"/>
<circle cx="50.055" cy="1446.06" r="50.055" fill="#F6CE4B"/>
</svg>
