<svg width="138" height="111" viewBox="0 0 138 111" fill="none" xmlns="http://www.w3.org/2000/svg">
<circle cx="48" cy="45" r="45" fill="#F6CE4B"/>
<path d="M9.135 109.04V110H1.71V99.5H8.91V100.46H2.82V104.195H8.25V105.14H2.82V109.04H9.135ZM15.5392 102.05C16.5292 102.05 17.3142 102.34 17.8942 102.92C18.4842 103.49 18.7792 104.325 18.7792 105.425V110H17.7142V105.53C17.7142 104.71 17.5092 104.085 17.0992 103.655C16.6892 103.225 16.1042 103.01 15.3442 103.01C14.4942 103.01 13.8192 103.265 13.3192 103.775C12.8292 104.275 12.5842 104.97 12.5842 105.86V110H11.5192V102.11H12.5392V103.565C12.8292 103.085 13.2292 102.715 13.7392 102.455C14.2592 102.185 14.8592 102.05 15.5392 102.05ZM28.1541 102.11L24.6441 110H23.5491L20.0541 102.11H21.1641L24.1191 108.83L27.1041 102.11H28.1541ZM29.6539 102.11H30.7189V110H29.6539V102.11ZM30.1939 100.385C29.9739 100.385 29.7889 100.31 29.6389 100.16C29.4889 100.01 29.4139 99.83 29.4139 99.62C29.4139 99.42 29.4889 99.245 29.6389 99.095C29.7889 98.945 29.9739 98.87 30.1939 98.87C30.4139 98.87 30.5989 98.945 30.7489 99.095C30.8989 99.235 30.9739 99.405 30.9739 99.605C30.9739 99.825 30.8989 100.01 30.7489 100.16C30.5989 100.31 30.4139 100.385 30.1939 100.385ZM34.7023 103.655C34.9523 103.125 35.3223 102.725 35.8123 102.455C36.3123 102.185 36.9273 102.05 37.6573 102.05V103.085L37.4023 103.07C36.5723 103.07 35.9223 103.325 35.4523 103.835C34.9823 104.345 34.7473 105.06 34.7473 105.98V110H33.6823V102.11H34.7023V103.655ZM42.7373 110.075C41.9773 110.075 41.2923 109.905 40.6823 109.565C40.0723 109.215 39.5923 108.735 39.2423 108.125C38.8923 107.515 38.7173 106.825 38.7173 106.055C38.7173 105.285 38.8923 104.595 39.2423 103.985C39.5923 103.375 40.0723 102.9 40.6823 102.56C41.2923 102.22 41.9773 102.05 42.7373 102.05C43.4973 102.05 44.1823 102.22 44.7923 102.56C45.4023 102.9 45.8773 103.375 46.2173 103.985C46.5673 104.595 46.7423 105.285 46.7423 106.055C46.7423 106.825 46.5673 107.515 46.2173 108.125C45.8773 108.735 45.4023 109.215 44.7923 109.565C44.1823 109.905 43.4973 110.075 42.7373 110.075ZM42.7373 109.13C43.2973 109.13 43.7973 109.005 44.2373 108.755C44.6873 108.495 45.0373 108.13 45.2873 107.66C45.5373 107.19 45.6623 106.655 45.6623 106.055C45.6623 105.455 45.5373 104.92 45.2873 104.45C45.0373 103.98 44.6873 103.62 44.2373 103.37C43.7973 103.11 43.2973 102.98 42.7373 102.98C42.1773 102.98 41.6723 103.11 41.2223 103.37C40.7823 103.62 40.4323 103.98 40.1723 104.45C39.9223 104.92 39.7973 105.455 39.7973 106.055C39.7973 106.655 39.9223 107.19 40.1723 107.66C40.4323 108.13 40.7823 108.495 41.2223 108.755C41.6723 109.005 42.1773 109.13 42.7373 109.13ZM52.9366 102.05C53.9266 102.05 54.7116 102.34 55.2916 102.92C55.8816 103.49 56.1766 104.325 56.1766 105.425V110H55.1116V105.53C55.1116 104.71 54.9066 104.085 54.4966 103.655C54.0866 103.225 53.5016 103.01 52.7416 103.01C51.8916 103.01 51.2166 103.265 50.7166 103.775C50.2266 104.275 49.9816 104.97 49.9816 105.86V110H48.9166V102.11H49.9366V103.565C50.2266 103.085 50.6266 102.715 51.1366 102.455C51.6566 102.185 52.2566 102.05 52.9366 102.05ZM68.908 102.05C69.898 102.05 70.673 102.335 71.233 102.905C71.803 103.475 72.088 104.315 72.088 105.425V110H71.023V105.53C71.023 104.71 70.823 104.085 70.423 103.655C70.033 103.225 69.478 103.01 68.758 103.01C67.938 103.01 67.293 103.265 66.823 103.775C66.353 104.275 66.118 104.97 66.118 105.86V110H65.053V105.53C65.053 104.71 64.853 104.085 64.453 103.655C64.063 103.225 63.503 103.01 62.773 103.01C61.963 103.01 61.318 103.265 60.838 103.775C60.368 104.275 60.133 104.97 60.133 105.86V110H59.068V102.11H60.088V103.55C60.368 103.07 60.758 102.7 61.258 102.44C61.758 102.18 62.333 102.05 62.983 102.05C63.643 102.05 64.213 102.19 64.693 102.47C65.183 102.75 65.548 103.165 65.788 103.715C66.078 103.195 66.493 102.79 67.033 102.5C67.583 102.2 68.208 102.05 68.908 102.05ZM81.8755 106.385H75.2755C75.3355 107.205 75.6505 107.87 76.2205 108.38C76.7905 108.88 77.5105 109.13 78.3805 109.13C78.8705 109.13 79.3205 109.045 79.7305 108.875C80.1405 108.695 80.4955 108.435 80.7955 108.095L81.3955 108.785C81.0455 109.205 80.6055 109.525 80.0755 109.745C79.5555 109.965 78.9805 110.075 78.3505 110.075C77.5405 110.075 76.8205 109.905 76.1905 109.565C75.5705 109.215 75.0855 108.735 74.7355 108.125C74.3855 107.515 74.2105 106.825 74.2105 106.055C74.2105 105.285 74.3755 104.595 74.7055 103.985C75.0455 103.375 75.5055 102.9 76.0855 102.56C76.6755 102.22 77.3355 102.05 78.0655 102.05C78.7955 102.05 79.4505 102.22 80.0305 102.56C80.6105 102.9 81.0655 103.375 81.3955 103.985C81.7255 104.585 81.8905 105.275 81.8905 106.055L81.8755 106.385ZM78.0655 102.965C77.3055 102.965 76.6655 103.21 76.1455 103.7C75.6355 104.18 75.3455 104.81 75.2755 105.59H80.8705C80.8005 104.81 80.5055 104.18 79.9855 103.7C79.4755 103.21 78.8355 102.965 78.0655 102.965ZM88.0782 102.05C89.0682 102.05 89.8532 102.34 90.4332 102.92C91.0232 103.49 91.3182 104.325 91.3182 105.425V110H90.2532V105.53C90.2532 104.71 90.0482 104.085 89.6382 103.655C89.2282 103.225 88.6432 103.01 87.8832 103.01C87.0332 103.01 86.3582 103.265 85.8582 103.775C85.3682 104.275 85.1232 104.97 85.1232 105.86V110H84.0582V102.11H85.0782V103.565C85.3682 103.085 85.7682 102.715 86.2782 102.455C86.7982 102.185 87.3982 102.05 88.0782 102.05ZM98.3646 109.52C98.1646 109.7 97.9146 109.84 97.6146 109.94C97.3246 110.03 97.0196 110.075 96.6996 110.075C95.9596 110.075 95.3896 109.875 94.9896 109.475C94.5896 109.075 94.3896 108.51 94.3896 107.78V103.01H92.9796V102.11H94.3896V100.385H95.4546V102.11H97.8546V103.01H95.4546V107.72C95.4546 108.19 95.5696 108.55 95.7996 108.8C96.0396 109.04 96.3796 109.16 96.8196 109.16C97.0396 109.16 97.2496 109.125 97.4496 109.055C97.6596 108.985 97.8396 108.885 97.9896 108.755L98.3646 109.52Z" fill="white"/>
<path d="M55.5001 37.5L27.3751 65.625" stroke="#041C32" stroke-width="4" stroke-linecap="round" stroke-linejoin="round"/>
<path d="M33.0001 60.0001C21.7501 41.2501 36.7501 22.5001 68.6251 24.3751C70.5001 56.2501 51.7501 71.2501 33.0001 60.0001Z" stroke="#041C32" stroke-width="4" stroke-linecap="round" stroke-linejoin="round"/>
</svg>
