<svg width="350" height="800" viewBox="0 0 375 771" fill="none" xmlns="http://www.w3.org/2000/svg">
<rect x="-294.401" y="157.936" width="210.598" height="939.61" transform="rotate(-48.359 -294.401 157.936)" fill="#1DB275"/>
<path d="M-8.50022 114.866C-0.799261 119.195 8.30598 120.287 16.8125 117.903C25.3189 115.519 32.5298 109.853 36.8589 102.152C41.1879 94.4508 42.2804 85.3456 39.8961 76.8391C37.5118 68.3326 31.8459 61.1217 24.145 56.7927L7.82236 85.8292L-8.50022 114.866Z" fill="#F6CE4B"/>
<path d="M24.1257 56.7594C16.4247 52.4304 7.31949 51.3379 -1.18699 53.7222C-9.69347 56.1065 -16.9044 61.7724 -21.2334 69.4734C-25.5624 77.1743 -26.6549 86.2796 -24.2706 94.786C-21.8863 103.293 -16.2204 110.503 -8.51948 114.832L7.80311 85.7959L24.1257 56.7594Z" fill="#1DB275"/>
<circle cx="7.75098" cy="85.9904" r="16.8059" transform="rotate(-165 7.75098 85.9904)" fill="#041C32"/>
<circle cx="24.2318" cy="737.484" r="60.0193" transform="rotate(75 24.2318 737.484)" fill="#1DB275"/>
<circle cx="6.73507" cy="785.452" r="41.8053" transform="rotate(75 6.73507 785.452)" fill="#041C32"/>
<circle cx="56.7494" cy="691.956" r="24.4587" transform="rotate(75 56.7494 691.956)" fill="#F6CE4B"/>
</svg>
