<svg width="224" height="309" viewBox="0 0 224 309" fill="none" xmlns="http://www.w3.org/2000/svg">
<circle cx="112" cy="112" r="112" fill="#F6CE4B"/>
<path d="M89.164 274.8V300H86.536V288.372H70.768V300H68.104V274.8H70.768V286.032H86.536V274.8H89.164ZM113.337 291.324H97.4972C97.6412 293.292 98.3972 294.888 99.7652 296.112C101.133 297.312 102.861 297.912 104.949 297.912C106.125 297.912 107.205 297.708 108.189 297.3C109.173 296.868 110.025 296.244 110.745 295.428L112.185 297.084C111.345 298.092 110.289 298.86 109.017 299.388C107.769 299.916 106.389 300.18 104.877 300.18C102.933 300.18 101.205 299.772 99.6932 298.956C98.2052 298.116 97.0412 296.964 96.2012 295.5C95.3612 294.036 94.9412 292.38 94.9412 290.532C94.9412 288.684 95.3372 287.028 96.1292 285.564C96.9452 284.1 98.0492 282.96 99.4412 282.144C100.857 281.328 102.441 280.92 104.193 280.92C105.945 280.92 107.517 281.328 108.909 282.144C110.301 282.96 111.393 284.1 112.185 285.564C112.977 287.004 113.373 288.66 113.373 290.532L113.337 291.324ZM104.193 283.116C102.369 283.116 100.833 283.704 99.5852 284.88C98.3612 286.032 97.6652 287.544 97.4972 289.416H110.925C110.757 287.544 110.049 286.032 108.801 284.88C107.577 283.704 106.041 283.116 104.193 283.116ZM124.672 280.92C127.144 280.92 129.04 281.544 130.36 282.792C131.68 284.016 132.34 285.84 132.34 288.264V300H129.892V297.048C129.316 298.032 128.464 298.8 127.336 299.352C126.232 299.904 124.912 300.18 123.376 300.18C121.264 300.18 119.584 299.676 118.336 298.668C117.088 297.66 116.464 296.328 116.464 294.672C116.464 293.064 117.04 291.768 118.192 290.784C119.368 289.8 121.228 289.308 123.772 289.308H129.784V288.156C129.784 286.524 129.328 285.288 128.416 284.448C127.504 283.584 126.172 283.152 124.42 283.152C123.22 283.152 122.068 283.356 120.964 283.764C119.86 284.148 118.912 284.688 118.12 285.384L116.968 283.476C117.928 282.66 119.08 282.036 120.424 281.604C121.768 281.148 123.184 280.92 124.672 280.92ZM123.772 298.164C125.212 298.164 126.448 297.84 127.48 297.192C128.512 296.52 129.28 295.56 129.784 294.312V291.216H123.844C120.604 291.216 118.984 292.344 118.984 294.6C118.984 295.704 119.404 296.58 120.244 297.228C121.084 297.852 122.26 298.164 123.772 298.164ZM139.283 273.288H141.839V300H139.283V273.288ZM158.993 298.848C158.513 299.28 157.913 299.616 157.193 299.856C156.497 300.072 155.765 300.18 154.997 300.18C153.221 300.18 151.853 299.7 150.893 298.74C149.933 297.78 149.453 296.424 149.453 294.672V283.224H146.069V281.064H149.453V276.924H152.009V281.064H157.769V283.224H152.009V294.528C152.009 295.656 152.285 296.52 152.837 297.12C153.413 297.696 154.229 297.984 155.285 297.984C155.813 297.984 156.317 297.9 156.797 297.732C157.301 297.564 157.733 297.324 158.093 297.012L158.993 298.848ZM173.294 280.92C175.67 280.92 177.554 281.616 178.946 283.008C180.362 284.376 181.07 286.38 181.07 289.02V300H178.514V289.272C178.514 287.304 178.022 285.804 177.038 284.772C176.054 283.74 174.65 283.224 172.826 283.224C170.786 283.224 169.166 283.836 167.966 285.06C166.79 286.26 166.202 287.928 166.202 290.064V300H163.646V273.288H166.202V284.376C166.898 283.272 167.858 282.42 169.082 281.82C170.306 281.22 171.71 280.92 173.294 280.92Z" fill="white"/>
<path d="M57.2856 119.143H80.1428L89.2857 105.429L107.571 132.857L116.714 119.143H130.429" stroke="#041C32" stroke-width="8" stroke-linecap="round" stroke-linejoin="round"/>
<path d="M55.0571 96.4001C55.5358 89.7263 58.2529 83.4093 62.7686 78.472C67.2843 73.5346 73.3342 70.2658 79.9389 69.1947C86.5436 68.1237 93.3165 69.3131 99.161 72.5705C105.006 75.8278 109.58 80.9624 112.143 87.143V87.143C114.785 80.8022 119.542 75.5726 125.605 72.3439C131.669 69.1153 138.663 68.0871 145.399 69.4343C152.135 70.7815 158.196 74.4208 162.551 79.733C166.906 85.0453 169.286 91.7023 169.286 98.5716C169.286 137.429 112.143 169.429 112.143 169.429C112.143 169.429 92.8857 158.629 76.7143 142" stroke="#041C32" stroke-width="8" stroke-linecap="round" stroke-linejoin="round"/>
</svg>
