<svg width="2058" height="1632" viewBox="0 0 2058 1632" fill="none" xmlns="http://www.w3.org/2000/svg">
<rect x="496.916" y="0.156006" width="1947" height="448.92" transform="rotate(41.7297 496.916 0.156006)" fill="#1DB275"/>
<path d="M952.101 411.622C970.545 390.95 980.021 363.798 978.445 336.139C976.869 308.48 964.37 282.58 943.698 264.136C923.026 245.693 895.873 236.217 868.214 237.793C840.556 239.369 814.655 251.868 796.212 272.54L874.157 342.081L952.101 411.622Z" fill="#F6CE4B"/>
<path d="M796.097 272.577C777.654 293.249 768.178 320.401 769.754 348.06C771.33 375.719 783.829 401.619 804.501 420.062C825.173 438.506 852.325 447.982 879.984 446.406C907.643 444.83 933.543 432.331 951.987 411.659L874.042 342.118L796.097 272.577Z" fill="#1DB275"/>
<circle cx="874.603" cy="342.408" r="52.7021" transform="rotate(117.397 874.603 342.408)" fill="#041C32"/>
<path d="M995.951 451.316C977.492 471.974 967.995 499.119 969.549 526.779C971.104 554.44 983.583 580.349 1004.24 598.809C1024.9 617.268 1052.04 626.765 1079.7 625.211C1107.36 623.656 1133.27 611.177 1151.73 590.519L1073.84 520.918L995.951 451.316Z" fill="#F6CE4B"/>
<path d="M1151.85 590.483C1170.31 569.825 1179.8 542.68 1178.25 515.02C1176.69 487.359 1164.22 461.45 1143.56 442.99C1122.9 424.531 1095.76 415.034 1068.09 416.588C1040.43 418.143 1014.53 430.622 996.066 451.28L1073.96 520.881L1151.85 590.483Z" fill="#1DB275"/>
<circle cx="1073.4" cy="520.59" r="52.7021" transform="rotate(-62.559 1073.4 520.59)" fill="#041C32"/>
<rect x="55.0229" y="120.38" width="853" height="36.0912" rx="18.0456" transform="rotate(41.73 55.0229 120.38)" fill="#F6CE4B"/>
<rect x="24.0229" width="853" height="36.0912" rx="18.0456" transform="rotate(41.73 24.0229 0)" fill="#041C32"/>
<circle cx="1626" cy="888" r="112" fill="#F6CE4B"/>
<path d="M1603.16 1050.8V1076H1600.54V1064.37H1584.77V1076H1582.1V1050.8H1584.77V1062.03H1600.54V1050.8H1603.16ZM1627.34 1067.32H1611.5C1611.64 1069.29 1612.4 1070.89 1613.77 1072.11C1615.13 1073.31 1616.86 1073.91 1618.95 1073.91C1620.13 1073.91 1621.21 1073.71 1622.19 1073.3C1623.17 1072.87 1624.03 1072.24 1624.75 1071.43L1626.19 1073.08C1625.35 1074.09 1624.29 1074.86 1623.02 1075.39C1621.77 1075.92 1620.39 1076.18 1618.88 1076.18C1616.93 1076.18 1615.21 1075.77 1613.69 1074.96C1612.21 1074.12 1611.04 1072.96 1610.2 1071.5C1609.36 1070.04 1608.94 1068.38 1608.94 1066.53C1608.94 1064.68 1609.34 1063.03 1610.13 1061.56C1610.95 1060.1 1612.05 1058.96 1613.44 1058.14C1614.86 1057.33 1616.44 1056.92 1618.19 1056.92C1619.95 1056.92 1621.52 1057.33 1622.91 1058.14C1624.3 1058.96 1625.39 1060.1 1626.19 1061.56C1626.98 1063 1627.37 1064.66 1627.37 1066.53L1627.34 1067.32ZM1618.19 1059.12C1616.37 1059.12 1614.83 1059.7 1613.59 1060.88C1612.36 1062.03 1611.67 1063.54 1611.5 1065.42H1624.93C1624.76 1063.54 1624.05 1062.03 1622.8 1060.88C1621.58 1059.7 1620.04 1059.12 1618.19 1059.12ZM1638.67 1056.92C1641.14 1056.92 1643.04 1057.54 1644.36 1058.79C1645.68 1060.02 1646.34 1061.84 1646.34 1064.26V1076H1643.89V1073.05C1643.32 1074.03 1642.46 1074.8 1641.34 1075.35C1640.23 1075.9 1638.91 1076.18 1637.38 1076.18C1635.26 1076.18 1633.58 1075.68 1632.34 1074.67C1631.09 1073.66 1630.46 1072.33 1630.46 1070.67C1630.46 1069.06 1631.04 1067.77 1632.19 1066.78C1633.37 1065.8 1635.23 1065.31 1637.77 1065.31H1643.78V1064.16C1643.78 1062.52 1643.33 1061.29 1642.42 1060.45C1641.5 1059.58 1640.17 1059.15 1638.42 1059.15C1637.22 1059.15 1636.07 1059.36 1634.96 1059.76C1633.86 1060.15 1632.91 1060.69 1632.12 1061.38L1630.97 1059.48C1631.93 1058.66 1633.08 1058.04 1634.42 1057.6C1635.77 1057.15 1637.18 1056.92 1638.67 1056.92ZM1637.77 1074.16C1639.21 1074.16 1640.45 1073.84 1641.48 1073.19C1642.51 1072.52 1643.28 1071.56 1643.78 1070.31V1067.22H1637.84C1634.6 1067.22 1632.98 1068.34 1632.98 1070.6C1632.98 1071.7 1633.4 1072.58 1634.24 1073.23C1635.08 1073.85 1636.26 1074.16 1637.77 1074.16ZM1653.28 1049.29H1655.84V1076H1653.28V1049.29ZM1672.99 1074.85C1672.51 1075.28 1671.91 1075.62 1671.19 1075.86C1670.5 1076.07 1669.76 1076.18 1669 1076.18C1667.22 1076.18 1665.85 1075.7 1664.89 1074.74C1663.93 1073.78 1663.45 1072.42 1663.45 1070.67V1059.22H1660.07V1057.06H1663.45V1052.92H1666.01V1057.06H1671.77V1059.22H1666.01V1070.53C1666.01 1071.66 1666.28 1072.52 1666.84 1073.12C1667.41 1073.7 1668.23 1073.98 1669.28 1073.98C1669.81 1073.98 1670.32 1073.9 1670.8 1073.73C1671.3 1073.56 1671.73 1073.32 1672.09 1073.01L1672.99 1074.85ZM1687.29 1056.92C1689.67 1056.92 1691.55 1057.62 1692.95 1059.01C1694.36 1060.38 1695.07 1062.38 1695.07 1065.02V1076H1692.51V1065.27C1692.51 1063.3 1692.02 1061.8 1691.04 1060.77C1690.05 1059.74 1688.65 1059.22 1686.83 1059.22C1684.79 1059.22 1683.17 1059.84 1681.97 1061.06C1680.79 1062.26 1680.2 1063.93 1680.2 1066.06V1076H1677.65V1049.29H1680.2V1060.38C1680.9 1059.27 1681.86 1058.42 1683.08 1057.82C1684.31 1057.22 1685.71 1056.92 1687.29 1056.92Z" fill="white"/>
<path d="M1571.29 895.143H1594.14L1603.29 881.429L1621.57 908.857L1630.71 895.143H1644.43" stroke="#041C32" stroke-width="8" stroke-linecap="round" stroke-linejoin="round"/>
<path d="M1569.06 872.4C1569.54 865.726 1572.25 859.409 1576.77 854.472C1581.28 849.534 1587.33 846.266 1593.94 845.195C1600.54 844.124 1607.32 845.313 1613.16 848.57C1619.01 851.828 1623.58 856.962 1626.14 863.143V863.143C1628.78 856.802 1633.54 851.572 1639.61 848.344C1645.67 845.115 1652.66 844.087 1659.4 845.434C1666.13 846.781 1672.2 850.421 1676.55 855.733C1680.91 861.045 1683.29 867.702 1683.29 874.571C1683.29 913.429 1626.14 945.429 1626.14 945.429C1626.14 945.429 1606.89 934.629 1590.71 918" stroke="#041C32" stroke-width="8" stroke-linecap="round" stroke-linejoin="round"/>
<circle cx="666" cy="888" r="112" fill="#F6CE4B"/>
<path d="M589.924 1073.7V1076H572.104V1050.8H589.384V1053.1H574.768V1062.07H587.8V1064.34H574.768V1073.7H589.924ZM612.645 1049.29V1076H610.197V1072.26C609.429 1073.53 608.409 1074.5 607.137 1075.17C605.889 1075.84 604.473 1076.18 602.889 1076.18C601.113 1076.18 599.505 1075.77 598.065 1074.96C596.625 1074.14 595.497 1073 594.681 1071.54C593.865 1070.07 593.457 1068.4 593.457 1066.53C593.457 1064.66 593.865 1062.99 594.681 1061.53C595.497 1060.06 596.625 1058.94 598.065 1058.14C599.505 1057.33 601.113 1056.92 602.889 1056.92C604.425 1056.92 605.805 1057.24 607.029 1057.89C608.277 1058.52 609.297 1059.44 610.089 1060.66V1049.29H612.645ZM603.105 1073.91C604.425 1073.91 605.613 1073.61 606.669 1073.01C607.749 1072.39 608.589 1071.51 609.189 1070.38C609.813 1069.26 610.125 1067.97 610.125 1066.53C610.125 1065.09 609.813 1063.81 609.189 1062.68C608.589 1061.55 607.749 1060.69 606.669 1060.09C605.613 1059.46 604.425 1059.15 603.105 1059.15C601.761 1059.15 600.549 1059.46 599.469 1060.09C598.413 1060.69 597.573 1061.55 596.949 1062.68C596.349 1063.81 596.049 1065.09 596.049 1066.53C596.049 1067.97 596.349 1069.26 596.949 1070.38C597.573 1071.51 598.413 1072.39 599.469 1073.01C600.549 1073.61 601.761 1073.91 603.105 1073.91ZM636.827 1057.06V1076H634.379V1072.54C633.707 1073.7 632.783 1074.6 631.607 1075.24C630.431 1075.87 629.087 1076.18 627.575 1076.18C625.103 1076.18 623.147 1075.5 621.707 1074.13C620.291 1072.74 619.583 1070.71 619.583 1068.04V1057.06H622.139V1067.79C622.139 1069.78 622.631 1071.3 623.615 1072.33C624.599 1073.36 626.003 1073.88 627.827 1073.88C629.819 1073.88 631.391 1073.28 632.543 1072.08C633.695 1070.85 634.271 1069.16 634.271 1067V1057.06H636.827ZM651.834 1076.18C649.962 1076.18 648.282 1075.77 646.794 1074.96C645.33 1074.14 644.178 1073 643.338 1071.54C642.498 1070.05 642.078 1068.38 642.078 1066.53C642.078 1064.68 642.498 1063.03 643.338 1061.56C644.178 1060.1 645.33 1058.96 646.794 1058.14C648.282 1057.33 649.962 1056.92 651.834 1056.92C653.466 1056.92 654.918 1057.24 656.19 1057.89C657.486 1058.52 658.506 1059.44 659.25 1060.66L657.342 1061.96C656.718 1061.02 655.926 1060.33 654.966 1059.87C654.006 1059.39 652.962 1059.15 651.834 1059.15C650.466 1059.15 649.23 1059.46 648.126 1060.09C647.046 1060.69 646.194 1061.55 645.57 1062.68C644.97 1063.81 644.67 1065.09 644.67 1066.53C644.67 1068 644.97 1069.29 645.57 1070.42C646.194 1071.52 647.046 1072.39 648.126 1073.01C649.23 1073.61 650.466 1073.91 651.834 1073.91C652.962 1073.91 654.006 1073.68 654.966 1073.23C655.926 1072.77 656.718 1072.08 657.342 1071.14L659.25 1072.44C658.506 1073.66 657.486 1074.6 656.19 1075.24C654.894 1075.87 653.442 1076.18 651.834 1076.18ZM670.895 1056.92C673.367 1056.92 675.263 1057.54 676.583 1058.79C677.903 1060.02 678.563 1061.84 678.563 1064.26V1076H676.115V1073.05C675.539 1074.03 674.687 1074.8 673.559 1075.35C672.455 1075.9 671.135 1076.18 669.599 1076.18C667.487 1076.18 665.807 1075.68 664.559 1074.67C663.311 1073.66 662.687 1072.33 662.687 1070.67C662.687 1069.06 663.263 1067.77 664.415 1066.78C665.591 1065.8 667.451 1065.31 669.995 1065.31H676.007V1064.16C676.007 1062.52 675.551 1061.29 674.639 1060.45C673.727 1059.58 672.395 1059.15 670.643 1059.15C669.443 1059.15 668.291 1059.36 667.187 1059.76C666.083 1060.15 665.135 1060.69 664.343 1061.38L663.191 1059.48C664.151 1058.66 665.303 1058.04 666.647 1057.6C667.991 1057.15 669.407 1056.92 670.895 1056.92ZM669.995 1074.16C671.435 1074.16 672.671 1073.84 673.703 1073.19C674.735 1072.52 675.503 1071.56 676.007 1070.31V1067.22H670.067C666.827 1067.22 665.207 1068.34 665.207 1070.6C665.207 1071.7 665.627 1072.58 666.467 1073.23C667.307 1073.85 668.483 1074.16 669.995 1074.16ZM695.477 1074.85C694.997 1075.28 694.397 1075.62 693.677 1075.86C692.981 1076.07 692.249 1076.18 691.481 1076.18C689.705 1076.18 688.337 1075.7 687.377 1074.74C686.417 1073.78 685.937 1072.42 685.937 1070.67V1059.22H682.553V1057.06H685.937V1052.92H688.493V1057.06H694.253V1059.22H688.493V1070.53C688.493 1071.66 688.769 1072.52 689.321 1073.12C689.897 1073.7 690.713 1073.98 691.769 1073.98C692.297 1073.98 692.801 1073.9 693.281 1073.73C693.785 1073.56 694.217 1073.32 694.577 1073.01L695.477 1074.85ZM700.13 1057.06H702.686V1076H700.13V1057.06ZM701.426 1052.92C700.898 1052.92 700.454 1052.74 700.094 1052.38C699.734 1052.02 699.554 1051.59 699.554 1051.09C699.554 1050.61 699.734 1050.19 700.094 1049.83C700.454 1049.47 700.898 1049.29 701.426 1049.29C701.954 1049.29 702.398 1049.47 702.758 1049.83C703.118 1050.16 703.298 1050.57 703.298 1051.05C703.298 1051.58 703.118 1052.02 702.758 1052.38C702.398 1052.74 701.954 1052.92 701.426 1052.92ZM717.538 1076.18C715.714 1076.18 714.07 1075.77 712.606 1074.96C711.142 1074.12 709.99 1072.96 709.15 1071.5C708.31 1070.04 707.89 1068.38 707.89 1066.53C707.89 1064.68 708.31 1063.03 709.15 1061.56C709.99 1060.1 711.142 1058.96 712.606 1058.14C714.07 1057.33 715.714 1056.92 717.538 1056.92C719.362 1056.92 721.006 1057.33 722.47 1058.14C723.934 1058.96 725.074 1060.1 725.89 1061.56C726.73 1063.03 727.15 1064.68 727.15 1066.53C727.15 1068.38 726.73 1070.04 725.89 1071.5C725.074 1072.96 723.934 1074.12 722.47 1074.96C721.006 1075.77 719.362 1076.18 717.538 1076.18ZM717.538 1073.91C718.882 1073.91 720.082 1073.61 721.138 1073.01C722.218 1072.39 723.058 1071.51 723.658 1070.38C724.258 1069.26 724.558 1067.97 724.558 1066.53C724.558 1065.09 724.258 1063.81 723.658 1062.68C723.058 1061.55 722.218 1060.69 721.138 1060.09C720.082 1059.46 718.882 1059.15 717.538 1059.15C716.194 1059.15 714.982 1059.46 713.902 1060.09C712.846 1060.69 712.006 1061.55 711.382 1062.68C710.782 1063.81 710.482 1065.09 710.482 1066.53C710.482 1067.97 710.782 1069.26 711.382 1070.38C712.006 1071.51 712.846 1072.39 713.902 1073.01C714.982 1073.61 716.194 1073.91 717.538 1073.91ZM742.017 1056.92C744.393 1056.92 746.277 1057.62 747.669 1059.01C749.085 1060.38 749.793 1062.38 749.793 1065.02V1076H747.237V1065.27C747.237 1063.3 746.745 1061.8 745.761 1060.77C744.777 1059.74 743.373 1059.22 741.549 1059.22C739.509 1059.22 737.889 1059.84 736.689 1061.06C735.513 1062.26 734.925 1063.93 734.925 1066.06V1076H732.369V1057.06H734.817V1060.56C735.513 1059.4 736.473 1058.52 737.697 1057.89C738.945 1057.24 740.385 1056.92 742.017 1056.92Z" fill="white"/>
<path d="M614.268 850.536V893.705" stroke="#041C32" stroke-width="8" stroke-linecap="round" stroke-linejoin="round"/>
<path d="M626.247 932.558C630.567 925.933 636.471 920.49 643.425 916.723C650.379 912.955 658.163 910.982 666.071 910.982C673.98 910.982 681.764 912.955 688.718 916.723C695.672 920.49 701.576 925.933 705.895 932.558" stroke="#041C32" stroke-width="8" stroke-linecap="round" stroke-linejoin="round"/>
<path d="M717.875 850.536L666.072 867.804L614.268 850.536L666.072 833.268L717.875 850.536Z" stroke="#041C32" stroke-width="8" stroke-linecap="round" stroke-linejoin="round"/>
<path d="M688.358 860.357C692.318 864.681 694.934 870.064 695.888 875.85C696.841 881.635 696.091 887.574 693.729 892.94C691.367 898.307 687.494 902.87 682.583 906.074C677.672 909.278 671.935 910.984 666.071 910.984C660.208 910.984 654.471 909.278 649.56 906.074C644.649 902.87 640.776 898.307 638.414 892.94C636.051 887.574 635.301 881.635 636.255 875.85C637.209 870.064 639.825 864.681 643.785 860.357" stroke="#041C32" stroke-width="8" stroke-linecap="round" stroke-linejoin="round"/>
<circle cx="986" cy="888" r="112" fill="#F6CE4B"/>
<path d="M883.924 1073.7V1076H866.104V1050.8H883.384V1053.1H868.768V1062.07H881.8V1064.34H868.768V1073.7H883.924ZM899.294 1056.92C901.67 1056.92 903.554 1057.62 904.946 1059.01C906.362 1060.38 907.07 1062.38 907.07 1065.02V1076H904.514V1065.27C904.514 1063.3 904.022 1061.8 903.038 1060.77C902.054 1059.74 900.65 1059.22 898.826 1059.22C896.786 1059.22 895.166 1059.84 893.966 1061.06C892.79 1062.26 892.202 1063.93 892.202 1066.06V1076H889.646V1057.06H892.094V1060.56C892.79 1059.4 893.75 1058.52 894.974 1057.89C896.222 1057.24 897.662 1056.92 899.294 1056.92ZM929.57 1057.06L921.146 1076H918.518L910.13 1057.06H912.794L919.886 1073.19L927.05 1057.06H929.57ZM933.169 1057.06H935.725V1076H933.169V1057.06ZM934.465 1052.92C933.937 1052.92 933.493 1052.74 933.133 1052.38C932.773 1052.02 932.593 1051.59 932.593 1051.09C932.593 1050.61 932.773 1050.19 933.133 1049.83C933.493 1049.47 933.937 1049.29 934.465 1049.29C934.993 1049.29 935.437 1049.47 935.797 1049.83C936.157 1050.16 936.337 1050.57 936.337 1051.05C936.337 1051.58 936.157 1052.02 935.797 1052.38C935.437 1052.74 934.993 1052.92 934.465 1052.92ZM945.285 1060.77C945.885 1059.5 946.773 1058.54 947.949 1057.89C949.149 1057.24 950.625 1056.92 952.377 1056.92V1059.4L951.765 1059.37C949.773 1059.37 948.213 1059.98 947.085 1061.2C945.957 1062.43 945.393 1064.14 945.393 1066.35V1076H942.837V1057.06H945.285V1060.77ZM964.57 1076.18C962.746 1076.18 961.102 1075.77 959.638 1074.96C958.174 1074.12 957.022 1072.96 956.182 1071.5C955.342 1070.04 954.922 1068.38 954.922 1066.53C954.922 1064.68 955.342 1063.03 956.182 1061.56C957.022 1060.1 958.174 1058.96 959.638 1058.14C961.102 1057.33 962.746 1056.92 964.57 1056.92C966.394 1056.92 968.038 1057.33 969.502 1058.14C970.966 1058.96 972.106 1060.1 972.922 1061.56C973.762 1063.03 974.182 1064.68 974.182 1066.53C974.182 1068.38 973.762 1070.04 972.922 1071.5C972.106 1072.96 970.966 1074.12 969.502 1074.96C968.038 1075.77 966.394 1076.18 964.57 1076.18ZM964.57 1073.91C965.914 1073.91 967.114 1073.61 968.17 1073.01C969.25 1072.39 970.09 1071.51 970.69 1070.38C971.29 1069.26 971.59 1067.97 971.59 1066.53C971.59 1065.09 971.29 1063.81 970.69 1062.68C970.09 1061.55 969.25 1060.69 968.17 1060.09C967.114 1059.46 965.914 1059.15 964.57 1059.15C963.226 1059.15 962.014 1059.46 960.934 1060.09C959.878 1060.69 959.038 1061.55 958.414 1062.68C957.814 1063.81 957.514 1065.09 957.514 1066.53C957.514 1067.97 957.814 1069.26 958.414 1070.38C959.038 1071.51 959.878 1072.39 960.934 1073.01C962.014 1073.61 963.226 1073.91 964.57 1073.91ZM989.048 1056.92C991.424 1056.92 993.308 1057.62 994.7 1059.01C996.116 1060.38 996.824 1062.38 996.824 1065.02V1076H994.268V1065.27C994.268 1063.3 993.776 1061.8 992.792 1060.77C991.808 1059.74 990.404 1059.22 988.58 1059.22C986.54 1059.22 984.92 1059.84 983.72 1061.06C982.544 1062.26 981.956 1063.93 981.956 1066.06V1076H979.4V1057.06H981.848V1060.56C982.544 1059.4 983.504 1058.52 984.728 1057.89C985.976 1057.24 987.416 1056.92 989.048 1056.92ZM1027.38 1056.92C1029.76 1056.92 1031.62 1057.6 1032.96 1058.97C1034.33 1060.34 1035.01 1062.36 1035.01 1065.02V1076H1032.46V1065.27C1032.46 1063.3 1031.98 1061.8 1031.02 1060.77C1030.08 1059.74 1028.75 1059.22 1027.02 1059.22C1025.05 1059.22 1023.5 1059.84 1022.38 1061.06C1021.25 1062.26 1020.68 1063.93 1020.68 1066.06V1076H1018.13V1065.27C1018.13 1063.3 1017.65 1061.8 1016.69 1060.77C1015.75 1059.74 1014.41 1059.22 1012.66 1059.22C1010.71 1059.22 1009.16 1059.84 1008.01 1061.06C1006.88 1062.26 1006.32 1063.93 1006.32 1066.06V1076H1003.76V1057.06H1006.21V1060.52C1006.88 1059.37 1007.82 1058.48 1009.02 1057.86C1010.22 1057.23 1011.6 1056.92 1013.16 1056.92C1014.74 1056.92 1016.11 1057.26 1017.26 1057.93C1018.44 1058.6 1019.32 1059.6 1019.89 1060.92C1020.59 1059.67 1021.58 1058.7 1022.88 1058C1024.2 1057.28 1025.7 1056.92 1027.38 1056.92ZM1058.5 1067.32H1042.66C1042.81 1069.29 1043.56 1070.89 1044.93 1072.11C1046.3 1073.31 1048.03 1073.91 1050.11 1073.91C1051.29 1073.91 1052.37 1073.71 1053.35 1073.3C1054.34 1072.87 1055.19 1072.24 1055.91 1071.43L1057.35 1073.08C1056.51 1074.09 1055.45 1074.86 1054.18 1075.39C1052.93 1075.92 1051.55 1076.18 1050.04 1076.18C1048.1 1076.18 1046.37 1075.77 1044.86 1074.96C1043.37 1074.12 1042.21 1072.96 1041.37 1071.5C1040.53 1070.04 1040.11 1068.38 1040.11 1066.53C1040.11 1064.68 1040.5 1063.03 1041.29 1061.56C1042.11 1060.1 1043.21 1058.96 1044.61 1058.14C1046.02 1057.33 1047.61 1056.92 1049.36 1056.92C1051.11 1056.92 1052.68 1057.33 1054.07 1058.14C1055.47 1058.96 1056.56 1060.1 1057.35 1061.56C1058.14 1063 1058.54 1064.66 1058.54 1066.53L1058.5 1067.32ZM1049.36 1059.12C1047.53 1059.12 1046 1059.7 1044.75 1060.88C1043.53 1062.03 1042.83 1063.54 1042.66 1065.42H1056.09C1055.92 1063.54 1055.21 1062.03 1053.97 1060.88C1052.74 1059.7 1051.21 1059.12 1049.36 1059.12ZM1073.39 1056.92C1075.76 1056.92 1077.65 1057.62 1079.04 1059.01C1080.46 1060.38 1081.16 1062.38 1081.16 1065.02V1076H1078.61V1065.27C1078.61 1063.3 1078.12 1061.8 1077.13 1060.77C1076.15 1059.74 1074.74 1059.22 1072.92 1059.22C1070.88 1059.22 1069.26 1059.84 1068.06 1061.06C1066.88 1062.26 1066.3 1063.93 1066.3 1066.06V1076H1063.74V1057.06H1066.19V1060.56C1066.88 1059.4 1067.84 1058.52 1069.07 1057.89C1070.32 1057.24 1071.76 1056.92 1073.39 1056.92ZM1098.07 1074.85C1097.59 1075.28 1096.99 1075.62 1096.27 1075.86C1095.58 1076.07 1094.85 1076.18 1094.08 1076.18C1092.3 1076.18 1090.93 1075.7 1089.97 1074.74C1089.01 1073.78 1088.53 1072.42 1088.53 1070.67V1059.22H1085.15V1057.06H1088.53V1052.92H1091.09V1057.06H1096.85V1059.22H1091.09V1070.53C1091.09 1071.66 1091.37 1072.52 1091.92 1073.12C1092.49 1073.7 1093.31 1073.98 1094.37 1073.98C1094.89 1073.98 1095.4 1073.9 1095.88 1073.73C1096.38 1073.56 1096.81 1073.32 1097.17 1073.01L1098.07 1074.85Z" fill="white"/>
<path d="M1001.05 870.232L943.263 928.022" stroke="#041C32" stroke-width="8" stroke-linecap="round" stroke-linejoin="round"/>
<path d="M954.821 916.464C931.705 877.938 962.527 839.411 1028.02 843.264C1031.87 908.759 993.348 939.581 954.821 916.464Z" stroke="#041C32" stroke-width="8" stroke-linecap="round" stroke-linejoin="round"/>
<circle cx="1306" cy="888" r="112" fill="#F6CE4B"/>
<path d="M1243 1053.1H1234.14V1050.8H1254.52V1053.1H1245.66V1076H1243V1053.1ZM1264.01 1076.18C1262.18 1076.18 1260.54 1075.77 1259.08 1074.96C1257.61 1074.12 1256.46 1072.96 1255.62 1071.5C1254.78 1070.04 1254.36 1068.38 1254.36 1066.53C1254.36 1064.68 1254.78 1063.03 1255.62 1061.56C1256.46 1060.1 1257.61 1058.96 1259.08 1058.14C1260.54 1057.33 1262.18 1056.92 1264.01 1056.92C1265.83 1056.92 1267.48 1057.33 1268.94 1058.14C1270.4 1058.96 1271.54 1060.1 1272.36 1061.56C1273.2 1063.03 1273.62 1064.68 1273.62 1066.53C1273.62 1068.38 1273.2 1070.04 1272.36 1071.5C1271.54 1072.96 1270.4 1074.12 1268.94 1074.96C1267.48 1075.77 1265.83 1076.18 1264.01 1076.18ZM1264.01 1073.91C1265.35 1073.91 1266.55 1073.61 1267.61 1073.01C1268.69 1072.39 1269.53 1071.51 1270.13 1070.38C1270.73 1069.26 1271.03 1067.97 1271.03 1066.53C1271.03 1065.09 1270.73 1063.81 1270.13 1062.68C1269.53 1061.55 1268.69 1060.69 1267.61 1060.09C1266.55 1059.46 1265.35 1059.15 1264.01 1059.15C1262.66 1059.15 1261.45 1059.46 1260.37 1060.09C1259.32 1060.69 1258.48 1061.55 1257.85 1062.68C1257.25 1063.81 1256.95 1065.09 1256.95 1066.53C1256.95 1067.97 1257.25 1069.26 1257.85 1070.38C1258.48 1071.51 1259.32 1072.39 1260.37 1073.01C1261.45 1073.61 1262.66 1073.91 1264.01 1073.91ZM1295.9 1057.06V1076H1293.45V1072.54C1292.78 1073.7 1291.86 1074.6 1290.68 1075.24C1289.51 1075.87 1288.16 1076.18 1286.65 1076.18C1284.18 1076.18 1282.22 1075.5 1280.78 1074.13C1279.37 1072.74 1278.66 1070.71 1278.66 1068.04V1057.06H1281.21V1067.79C1281.21 1069.78 1281.71 1071.3 1282.69 1072.33C1283.67 1073.36 1285.08 1073.88 1286.9 1073.88C1288.89 1073.88 1290.47 1073.28 1291.62 1072.08C1292.77 1070.85 1293.35 1069.16 1293.35 1067V1057.06H1295.9ZM1305.51 1060.77C1306.11 1059.5 1307 1058.54 1308.17 1057.89C1309.37 1057.24 1310.85 1056.92 1312.6 1056.92V1059.4L1311.99 1059.37C1310 1059.37 1308.44 1059.98 1307.31 1061.2C1306.18 1062.43 1305.62 1064.14 1305.62 1066.35V1076H1303.06V1057.06H1305.51V1060.77ZM1317.23 1057.06H1319.78V1076H1317.23V1057.06ZM1318.52 1052.92C1318 1052.92 1317.55 1052.74 1317.19 1052.38C1316.83 1052.02 1316.65 1051.59 1316.65 1051.09C1316.65 1050.61 1316.83 1050.19 1317.19 1049.83C1317.55 1049.47 1318 1049.29 1318.52 1049.29C1319.05 1049.29 1319.5 1049.47 1319.86 1049.83C1320.22 1050.16 1320.4 1050.57 1320.4 1051.05C1320.4 1051.58 1320.22 1052.02 1319.86 1052.38C1319.5 1052.74 1319.05 1052.92 1318.52 1052.92ZM1331.97 1076.18C1330.44 1076.18 1328.96 1075.96 1327.54 1075.53C1326.15 1075.08 1325.06 1074.51 1324.27 1073.84L1325.42 1071.82C1326.21 1072.45 1327.21 1072.96 1328.41 1073.37C1329.61 1073.76 1330.86 1073.95 1332.15 1073.95C1333.88 1073.95 1335.15 1073.68 1335.97 1073.16C1336.81 1072.6 1337.23 1071.84 1337.23 1070.85C1337.23 1070.16 1337 1069.62 1336.54 1069.23C1336.09 1068.82 1335.51 1068.52 1334.82 1068.33C1334.12 1068.12 1333.2 1067.91 1332.04 1067.72C1330.51 1067.43 1329.27 1067.14 1328.34 1066.86C1327.4 1066.54 1326.6 1066.03 1325.92 1065.31C1325.28 1064.59 1324.95 1063.59 1324.95 1062.32C1324.95 1060.74 1325.61 1059.44 1326.93 1058.43C1328.25 1057.42 1330.09 1056.92 1332.44 1056.92C1333.66 1056.92 1334.89 1057.09 1336.11 1057.42C1337.34 1057.74 1338.34 1058.16 1339.14 1058.68L1338.02 1060.74C1336.46 1059.66 1334.6 1059.12 1332.44 1059.12C1330.81 1059.12 1329.57 1059.4 1328.73 1059.98C1327.92 1060.56 1327.51 1061.31 1327.51 1062.25C1327.51 1062.97 1327.74 1063.54 1328.19 1063.98C1328.67 1064.41 1329.26 1064.73 1329.96 1064.95C1330.65 1065.14 1331.61 1065.34 1332.84 1065.56C1334.35 1065.85 1335.56 1066.14 1336.47 1066.42C1337.38 1066.71 1338.16 1067.2 1338.81 1067.9C1339.46 1068.6 1339.78 1069.56 1339.78 1070.78C1339.78 1072.44 1339.09 1073.76 1337.7 1074.74C1336.33 1075.7 1334.42 1076.18 1331.97 1076.18ZM1368.13 1056.92C1370.5 1056.92 1372.36 1057.6 1373.71 1058.97C1375.07 1060.34 1375.76 1062.36 1375.76 1065.02V1076H1373.2V1065.27C1373.2 1063.3 1372.72 1061.8 1371.76 1060.77C1370.83 1059.74 1369.49 1059.22 1367.77 1059.22C1365.8 1059.22 1364.25 1059.84 1363.12 1061.06C1361.99 1062.26 1361.43 1063.93 1361.43 1066.06V1076H1358.87V1065.27C1358.87 1063.3 1358.39 1061.8 1357.43 1060.77C1356.5 1059.74 1355.15 1059.22 1353.4 1059.22C1351.46 1059.22 1349.91 1059.84 1348.76 1061.06C1347.63 1062.26 1347.07 1063.93 1347.07 1066.06V1076H1344.51V1057.06H1346.96V1060.52C1347.63 1059.37 1348.57 1058.48 1349.77 1057.86C1350.97 1057.23 1352.35 1056.92 1353.91 1056.92C1355.49 1056.92 1356.86 1057.26 1358.01 1057.93C1359.19 1058.6 1360.06 1059.6 1360.64 1060.92C1361.33 1059.67 1362.33 1058.7 1363.63 1058C1364.95 1057.28 1366.45 1056.92 1368.13 1056.92Z" fill="white"/>
<path d="M1252.4 929.616H1326.81" stroke="#041C32" stroke-width="8" stroke-linecap="round" stroke-linejoin="round"/>
<path d="M1248.73 890.551L1268.21 908.792C1270.81 911.227 1274.13 912.758 1277.66 913.159C1281.2 913.559 1284.77 912.807 1287.85 911.014L1366.08 865.54L1356.47 853.759C1353.97 850.705 1350.46 848.646 1346.58 847.955C1342.69 847.263 1338.69 847.983 1335.29 849.986L1312.34 863.473L1281.34 853.139L1272.81 856.807C1272.18 857.081 1271.62 857.51 1271.19 858.056C1270.76 858.603 1270.48 859.248 1270.36 859.932C1270.25 860.617 1270.31 861.319 1270.54 861.974C1270.77 862.629 1271.16 863.216 1271.68 863.68L1287.54 877.942L1273.07 886.21L1258.6 880.009L1249.92 883.73C1249.29 884.001 1248.74 884.425 1248.31 884.965C1247.88 885.504 1247.6 886.141 1247.48 886.818C1247.36 887.496 1247.42 888.191 1247.63 888.843C1247.85 889.495 1248.23 890.082 1248.73 890.551V890.551Z" stroke="#041C32" stroke-width="8" stroke-linecap="round" stroke-linejoin="round"/>
<path d="M1908.28 1050.8V1076H1905.72V1055.84L1895.82 1072.8H1894.56L1884.66 1055.95V1076H1882.1V1050.8H1884.3L1895.24 1069.48L1906.08 1050.8H1908.28ZM1923.69 1076.18C1921.86 1076.18 1920.22 1075.77 1918.75 1074.96C1917.29 1074.12 1916.14 1072.96 1915.3 1071.5C1914.46 1070.04 1914.04 1068.38 1914.04 1066.53C1914.04 1064.68 1914.46 1063.03 1915.3 1061.56C1916.14 1060.1 1917.29 1058.96 1918.75 1058.14C1920.22 1057.33 1921.86 1056.92 1923.69 1056.92C1925.51 1056.92 1927.15 1057.33 1928.62 1058.14C1930.08 1058.96 1931.22 1060.1 1932.04 1061.56C1932.88 1063.03 1933.3 1064.68 1933.3 1066.53C1933.3 1068.38 1932.88 1070.04 1932.04 1071.5C1931.22 1072.96 1930.08 1074.12 1928.62 1074.96C1927.15 1075.77 1925.51 1076.18 1923.69 1076.18ZM1923.69 1073.91C1925.03 1073.91 1926.23 1073.61 1927.29 1073.01C1928.37 1072.39 1929.21 1071.51 1929.81 1070.38C1930.41 1069.26 1930.71 1067.97 1930.71 1066.53C1930.71 1065.09 1930.41 1063.81 1929.81 1062.68C1929.21 1061.55 1928.37 1060.69 1927.29 1060.09C1926.23 1059.46 1925.03 1059.15 1923.69 1059.15C1922.34 1059.15 1921.13 1059.46 1920.05 1060.09C1918.99 1060.69 1918.15 1061.55 1917.53 1062.68C1916.93 1063.81 1916.63 1065.09 1916.63 1066.53C1916.63 1067.97 1916.93 1069.26 1917.53 1070.38C1918.15 1071.51 1918.99 1072.39 1920.05 1073.01C1921.13 1073.61 1922.34 1073.91 1923.69 1073.91ZM1948.27 1056.92C1950.05 1056.92 1951.66 1057.33 1953.1 1058.14C1954.54 1058.94 1955.67 1060.06 1956.48 1061.53C1957.3 1062.99 1957.71 1064.66 1957.71 1066.53C1957.71 1068.4 1957.3 1070.07 1956.48 1071.54C1955.67 1073 1954.54 1074.14 1953.1 1074.96C1951.66 1075.77 1950.05 1076.18 1948.27 1076.18C1946.69 1076.18 1945.26 1075.84 1943.99 1075.17C1942.74 1074.5 1941.73 1073.53 1940.97 1072.26V1076H1938.52V1049.29H1941.07V1060.66C1941.87 1059.44 1942.87 1058.52 1944.1 1057.89C1945.35 1057.24 1946.74 1056.92 1948.27 1056.92ZM1948.09 1073.91C1949.41 1073.91 1950.61 1073.61 1951.69 1073.01C1952.77 1072.39 1953.61 1071.51 1954.21 1070.38C1954.84 1069.26 1955.15 1067.97 1955.15 1066.53C1955.15 1065.09 1954.84 1063.81 1954.21 1062.68C1953.61 1061.55 1952.77 1060.69 1951.69 1060.09C1950.61 1059.46 1949.41 1059.15 1948.09 1059.15C1946.75 1059.15 1945.54 1059.46 1944.46 1060.09C1943.4 1060.69 1942.56 1061.55 1941.94 1062.68C1941.34 1063.81 1941.04 1065.09 1941.04 1066.53C1941.04 1067.97 1941.34 1069.26 1941.94 1070.38C1942.56 1071.51 1943.4 1072.39 1944.46 1073.01C1945.54 1073.61 1946.75 1073.91 1948.09 1073.91ZM1962.92 1057.06H1965.47V1076H1962.92V1057.06ZM1964.21 1052.92C1963.68 1052.92 1963.24 1052.74 1962.88 1052.38C1962.52 1052.02 1962.34 1051.59 1962.34 1051.09C1962.34 1050.61 1962.52 1050.19 1962.88 1049.83C1963.24 1049.47 1963.68 1049.29 1964.21 1049.29C1964.74 1049.29 1965.18 1049.47 1965.54 1049.83C1965.9 1050.16 1966.08 1050.57 1966.08 1051.05C1966.08 1051.58 1965.9 1052.02 1965.54 1052.38C1965.18 1052.74 1964.74 1052.92 1964.21 1052.92ZM1972.58 1049.29H1975.14V1076H1972.58V1049.29ZM1982.25 1057.06H1984.81V1076H1982.25V1057.06ZM1983.55 1052.92C1983.02 1052.92 1982.58 1052.74 1982.22 1052.38C1981.86 1052.02 1981.68 1051.59 1981.68 1051.09C1981.68 1050.61 1981.86 1050.19 1982.22 1049.83C1982.58 1049.47 1983.02 1049.29 1983.55 1049.29C1984.08 1049.29 1984.52 1049.47 1984.88 1049.83C1985.24 1050.16 1985.42 1050.57 1985.42 1051.05C1985.42 1051.58 1985.24 1052.02 1984.88 1052.38C1984.52 1052.74 1984.08 1052.92 1983.55 1052.92ZM2001.89 1074.85C2001.41 1075.28 2000.81 1075.62 2000.09 1075.86C1999.4 1076.07 1998.66 1076.18 1997.9 1076.18C1996.12 1076.18 1994.75 1075.7 1993.79 1074.74C1992.83 1073.78 1992.35 1072.42 1992.35 1070.67V1059.22H1988.97V1057.06H1992.35V1052.92H1994.91V1057.06H2000.67V1059.22H1994.91V1070.53C1994.91 1071.66 1995.18 1072.52 1995.74 1073.12C1996.31 1073.7 1997.13 1073.98 1998.18 1073.98C1998.71 1073.98 1999.22 1073.9 1999.7 1073.73C2000.2 1073.56 2000.63 1073.32 2000.99 1073.01L2001.89 1074.85ZM2022.1 1057.06L2012.64 1078.27C2011.87 1080.04 2010.98 1081.3 2009.97 1082.05C2008.96 1082.79 2007.75 1083.16 2006.34 1083.16C2005.42 1083.16 2004.57 1083.02 2003.78 1082.73C2002.99 1082.44 2002.3 1082.01 2001.73 1081.44L2002.92 1079.53C2003.88 1080.49 2005.03 1080.97 2006.37 1080.97C2007.24 1080.97 2007.97 1080.73 2008.57 1080.25C2009.19 1079.77 2009.77 1078.95 2010.3 1077.8L2011.12 1075.96L2002.66 1057.06H2005.33L2012.46 1073.16L2019.58 1057.06H2022.1Z" fill="white"/>
<circle cx="1946" cy="888" r="112" fill="#F6CE4B"/>
<path d="M1888.2 875.473H2002.95" stroke="#041C32" stroke-width="8" stroke-linecap="round" stroke-linejoin="round"/>
<path d="M1994.75 908.259V920.554C1994.75 921.641 1994.32 922.683 1993.55 923.452C1992.78 924.22 1991.74 924.652 1990.65 924.652H1978.36C1977.27 924.652 1976.23 924.22 1975.46 923.452C1974.69 922.683 1974.26 921.641 1974.26 920.554V908.259" stroke="#041C32" stroke-width="8" stroke-linecap="round" stroke-linejoin="round"/>
<path d="M1916.88 908.259V920.554C1916.88 921.641 1916.45 922.683 1915.68 923.452C1914.91 924.22 1913.87 924.652 1912.79 924.652H1900.49C1899.4 924.652 1898.36 924.22 1897.59 923.452C1896.82 922.683 1896.39 921.641 1896.39 920.554V908.259" stroke="#041C32" stroke-width="8" stroke-linecap="round" stroke-linejoin="round"/>
<path d="M1912.79 891.866H1920.98" stroke="#041C32" stroke-width="8" stroke-linecap="round" stroke-linejoin="round"/>
<path d="M1970.16 891.866H1978.36" stroke="#041C32" stroke-width="8" stroke-linecap="round" stroke-linejoin="round"/>
<path d="M1994.75 875.473L1979.43 841.048C1979.11 840.32 1978.59 839.7 1977.93 839.263C1977.26 838.827 1976.49 838.593 1975.69 838.589H1915.45C1914.65 838.593 1913.88 838.827 1913.21 839.263C1912.55 839.7 1912.03 840.32 1911.71 841.048L1896.39 875.473V908.259H1994.75V875.473Z" stroke="#041C32" stroke-width="8" stroke-linecap="round" stroke-linejoin="round"/>
</svg>
